<svg data-v-423bf9ae="" xmlns="http://www.w3.org/2000/svg" viewBox="0 0 421 90" class="iconLeftSlogan"><!----><!----><!----><g data-v-423bf9ae="" id="2f866fb7-a82e-4330-a41e-999ede87676c" fill="white" transform="matrix(3.18640468630395,0,0,3.18640468630395,141.72556193978588,-10.610728315963087)"><path d="M5.73 15.65L5.73 15.65L5.73 15.65Q5.33 15.92 4.94 16.15L4.94 16.15L4.94 16.15Q4.55 16.38 4.19 16.55L4.19 16.55L4.19 16.55Q3.83 16.72 3.51 16.83L3.51 16.83L3.51 16.83Q3.19 16.93 2.93 16.96L2.93 16.96L2.93 16.96Q2.66 16.99 2.46 16.98L2.46 16.98L2.46 16.98Q2.26 16.98 2.12 16.89L2.12 16.89L2.12 16.89Q1.98 16.80 1.91 16.61L1.91 16.61L1.91 16.61Q1.85 16.42 1.85 16.08L1.85 16.08L1.85 16.08Q1.85 15.91 1.85 15.49L1.85 15.49L1.85 15.49Q1.85 15.07 1.86 14.48L1.86 14.48L1.86 14.48Q1.86 13.90 1.87 13.20L1.87 13.20L1.87 13.20Q1.87 12.51 1.88 11.80L1.88 11.80L1.88 11.80Q1.89 11.09 1.89 10.41L1.89 10.41L1.89 10.41Q1.90 9.73 1.91 9.18L1.91 9.18L1.91 9.18Q1.91 8.63 1.92 8.25L1.92 8.25L1.92 8.25Q1.93 7.88 1.93 7.77L1.93 7.77L1.93 7.77Q1.94 7.53 1.73 7.43L1.73 7.43L1.73 7.43Q1.52 7.33 1.22 7.33L1.22 7.33L1.22 7.33Q0.96 7.33 0.69 7.38L0.69 7.38L0.69 7.38Q0.42 7.42 0.17 7.49L0.17 7.49L0.17 7.49Q0.52 7.25 0.86 7.06L0.86 7.06L0.86 7.06Q1.20 6.86 1.54 6.72L1.54 6.72L1.54 6.72Q1.89 6.58 2.24 6.50L2.24 6.50L2.24 6.50Q2.60 6.42 2.98 6.42L2.98 6.42L2.98 6.42Q3.13 6.42 3.26 6.44L3.26 6.44L3.26 6.44Q3.40 6.45 3.50 6.49L3.50 6.49L3.50 6.49Q3.60 6.53 3.65 6.59L3.65 6.59L3.65 6.59Q3.71 6.65 3.71 6.74L3.71 6.74L3.71 6.74Q3.71 7.01 3.71 8.03L3.71 8.03L3.71 8.03Q3.71 8.47 3.70 9.12L3.70 9.12L3.70 9.12Q3.70 9.77 3.69 10.69L3.69 10.69L3.69 10.69Q3.69 11.61 3.69 12.82L3.69 12.82L3.69 12.82Q3.68 14.04 3.68 15.61L3.68 15.61L3.68 15.61Q4.05 15.68 4.36 15.71L4.36 15.71L4.36 15.71Q4.66 15.73 4.90 15.73L4.90 15.73L4.90 15.73Q5.10 15.73 5.25 15.72L5.25 15.72L5.25 15.72Q5.41 15.70 5.52 15.69L5.52 15.69L5.52 15.69Q5.64 15.67 5.73 15.65ZM8.98 15.78L8.98 15.78L7.35 16.96L7.35 16.96Q7.41 15.64 7.44 14.71L7.44 14.71L7.44 14.71Q7.48 13.78 7.49 13.18L7.49 13.18L7.49 13.18Q7.51 12.48 7.51 12.02L7.51 12.02L7.51 12.02Q7.55 11.19 7.29 10.72L7.29 10.72L7.29 10.72Q7.03 10.25 6.49 10.25L6.49 10.25L6.49 10.25Q6.32 10.25 6.14 10.31L6.14 10.31L6.14 10.31Q5.95 10.36 5.74 10.45L5.74 10.45L5.74 10.45Q6.00 10.26 6.30 10.06L6.30 10.06L6.30 10.06Q6.59 9.86 6.90 9.69L6.90 9.69L6.90 9.69Q7.21 9.53 7.52 9.42L7.52 9.42L7.52 9.42Q7.83 9.32 8.13 9.32L8.13 9.32L8.13 9.32Q8.42 9.32 8.65 9.43L8.65 9.43L8.65 9.43Q8.89 9.55 9.01 9.82L9.01 9.82L9.01 9.82Q9.12 10.06 9.16 10.34L9.16 10.34L9.16 10.34Q9.21 10.63 9.22 10.97L9.22 10.97L9.22 10.97Q9.57 10.60 10.00 10.28L10.00 10.28L10.00 10.28Q10.44 9.96 10.91 9.73L10.91 9.73L10.91 9.73Q11.38 9.51 11.86 9.40L11.86 9.40L11.86 9.40Q12.34 9.29 12.76 9.34L12.76 9.34L12.76 9.34Q13.07 9.39 13.40 9.52L13.40 9.52L13.40 9.52Q13.73 9.65 14.01 9.91L14.01 9.91L14.01 9.91Q14.29 10.18 14.46 10.61L14.46 10.61L14.46 10.61Q14.63 11.05 14.62 11.70L14.62 11.70L14.62 11.70Q14.59 12.46 14.55 13.10L14.55 13.10L14.55 13.10Q14.50 13.74 14.50 14.23L14.50 14.23L14.50 14.23Q14.50 14.53 14.55 14.79L14.55 14.79L14.55 14.79Q14.59 15.05 14.71 15.25L14.71 15.25L14.71 15.25Q14.83 15.44 15.04 15.56L15.04 15.56L15.04 15.56Q15.24 15.67 15.55 15.67L15.55 15.67L15.55 15.67Q15.83 15.67 16.13 15.57L16.13 15.57L16.13 15.57Q16.43 15.46 16.74 15.24L16.74 15.24L16.74 15.24Q16.24 15.69 15.83 15.99L15.83 15.99L15.83 15.99Q15.42 16.29 15.06 16.47L15.06 16.47L15.06 16.47Q14.70 16.66 14.40 16.74L14.40 16.74L14.40 16.74Q14.09 16.82 13.80 16.81L13.80 16.81L13.80 16.81Q13.51 16.80 13.31 16.70L13.31 16.70L13.31 16.70Q13.10 16.59 12.98 16.37L12.98 16.37L12.98 16.37Q12.86 16.15 12.81 15.79L12.81 15.79L12.81 15.79Q12.76 15.44 12.78 14.93L12.78 14.93L12.78 14.93Q12.80 14.48 12.83 13.94L12.83 13.94L12.83 13.94Q12.87 13.39 12.87 12.86L12.87 12.86L12.87 12.86Q12.87 12.25 12.78 11.81L12.78 11.81L12.78 11.81Q12.70 11.38 12.49 11.09L12.49 11.09L12.49 11.09Q12.27 10.81 11.89 10.67L11.89 10.67L11.89 10.67Q11.51 10.53 10.92 10.53L10.92 10.53L10.92 10.53Q10.49 10.53 10.19 10.70L10.19 10.70L10.19 10.70Q9.88 10.87 9.69 11.16L9.69 11.16L9.69 11.16Q9.49 11.44 9.38 11.82L9.38 11.82L9.38 11.82Q9.26 12.20 9.20 12.63L9.20 12.63L9.20 12.63Q9.15 13.06 9.13 13.50L9.13 13.50L9.13 13.50Q9.11 13.95 9.10 14.37L9.10 14.37L9.10 14.37Q9.08 14.79 9.06 15.15L9.06 15.15L9.06 15.15Q9.04 15.52 8.98 15.78ZM19.78 3.77L19.78 3.77L19.78 3.77Q19.78 3.99 19.79 4.18L19.79 4.18L19.79 4.18Q19.80 4.38 19.80 4.56L19.80 4.56L19.80 4.56Q19.80 4.94 19.73 5.22L19.73 5.22L19.73 5.22Q19.65 5.50 19.40 5.65L19.40 5.65L19.40 5.65Q19.25 5.76 19.02 5.91L19.02 5.91L19.02 5.91Q18.83 6.04 18.53 6.22L18.53 6.22L18.53 6.22Q18.24 6.41 17.82 6.66L17.82 6.66L17.82 6.66Q17.90 6.44 17.94 6.13L17.94 6.13L17.94 6.13Q17.98 5.82 17.99 5.54L17.99 5.54L17.99 5.54Q18.01 5.21 17.99 4.85L17.99 4.85L17.99 4.85Q18.42 4.63 18.75 4.43L18.75 4.43L18.75 4.43Q19.08 4.24 19.31 4.09L19.31 4.09L19.31 4.09Q19.58 3.92 19.78 3.77ZM19.57 10.04L19.57 10.04L19.57 10.04Q19.61 10.16 19.62 10.57L19.62 10.57L19.62 10.57Q19.63 10.98 19.63 11.57L19.63 11.57L19.63 11.57Q19.63 12.09 19.62 12.69L19.62 12.69L19.62 12.69Q19.61 13.30 19.60 13.93L19.60 13.93L19.60 13.93Q19.59 14.55 19.58 15.16L19.58 15.16L19.58 15.16Q19.56 15.76 19.55 16.27L19.55 16.27L19.55 16.27Q19.54 16.78 19.53 17.14L19.53 17.14L19.53 17.14Q19.52 17.51 19.52 17.66L19.52 17.66L19.52 17.66Q19.50 18.43 18.92 19.26L18.92 19.26L18.92 19.26Q18.35 20.09 17.17 20.92L17.17 20.92L17.17 20.92Q16.68 21.27 16.21 21.50L16.21 21.50L16.21 21.50Q15.75 21.74 15.33 21.88L15.33 21.88L15.33 21.88Q14.90 22.03 14.52 22.09L14.52 22.09L14.52 22.09Q14.14 22.16 13.83 22.16L13.83 22.16L13.83 22.16Q13.64 22.16 13.40 22.11L13.40 22.11L13.40 22.11Q13.15 22.07 12.90 21.98L12.90 21.98L12.90 21.98Q12.65 21.90 12.42 21.79L12.42 21.79L12.42 21.79Q12.19 21.68 12.04 21.55L12.04 21.55L12.04 21.55Q11.89 21.42 11.86 21.28L11.86 21.28L11.86 21.28Q11.83 21.14 11.96 21.01L11.96 21.01L11.96 21.01Q12.09 20.88 12.33 20.70L12.33 20.70L12.33 20.70Q12.54 20.54 12.88 20.30L12.88 20.30L12.88 20.30Q13.22 20.06 13.73 19.71L13.73 19.71L13.73 19.71Q13.64 19.80 13.60 19.90L13.60 19.90L13.60 19.90Q13.56 19.99 13.56 20.07L13.56 20.07L13.56 20.07Q13.56 20.25 13.71 20.39L13.71 20.39L13.71 20.39Q13.85 20.52 14.07 20.61L14.07 20.61L14.07 20.61Q14.29 20.71 14.57 20.76L14.57 20.76L14.57 20.76Q14.84 20.82 15.10 20.86L15.10 20.86L15.10 20.86Q15.36 20.89 15.57 20.90L15.57 20.90L15.57 20.90Q15.78 20.91 15.89 20.91L15.89 20.91L15.89 20.91Q16.32 20.91 16.63 20.77L16.63 20.77L16.63 20.77Q16.93 20.64 17.14 20.41L17.14 20.41L17.14 20.41Q17.35 20.17 17.48 19.87L17.48 19.87L17.48 19.87Q17.60 19.56 17.67 19.22L17.67 19.22L17.67 19.22Q17.74 18.87 17.76 18.52L17.76 18.52L17.76 18.52Q17.79 18.16 17.79 17.83L17.79 17.83L17.79 17.83Q17.79 17.74 17.80 17.39L17.80 17.39L17.80 17.39Q17.81 17.04 17.81 16.52L17.81 16.52L17.81 16.52Q17.82 16.01 17.83 15.39L17.83 15.39L17.83 15.39Q17.83 14.77 17.84 14.14L17.84 14.14L17.84 14.14Q17.84 13.51 17.85 12.93L17.85 12.93L17.85 12.93Q17.85 12.35 17.85 11.92L17.85 11.92L17.85 11.92Q17.85 11.07 17.72 10.70L17.72 10.70L17.72 10.70Q17.59 10.33 17.23 10.33L17.23 10.33L17.23 10.33Q17.12 10.33 16.98 10.36L16.98 10.36L16.98 10.36Q16.84 10.38 16.69 10.44L16.69 10.44L16.69 10.44Q16.92 10.27 17.17 10.10L17.17 10.10L17.17 10.10Q17.42 9.93 17.69 9.79L17.69 9.79L17.69 9.79Q17.96 9.65 18.23 9.56L18.23 9.56L18.23 9.56Q18.50 9.47 18.79 9.47L18.79 9.47L18.79 9.47Q19.07 9.47 19.29 9.60L19.29 9.60L19.29 9.60Q19.51 9.73 19.57 10.04ZM25.40 11.66L30.41 10.02L30.41 10.02Q29.62 10.40 28.95 10.70L28.95 10.70L28.95 10.70Q28.27 11.00 27.76 11.20L27.76 11.20L27.76 11.20Q27.17 11.44 26.67 11.63L26.67 11.63L26.67 11.63Q26.36 11.76 25.99 11.89L25.99 11.89L25.99 11.89Q25.61 12.02 25.21 12.15L25.21 12.15L25.21 12.15Q24.81 12.28 24.39 12.40L24.39 12.40L24.39 12.40Q23.97 12.53 23.56 12.65L23.56 12.65L23.56 12.79L23.56 12.79Q23.56 13.49 23.78 14.05L23.78 14.05L23.78 14.05Q24.00 14.62 24.40 15.01L24.40 15.01L24.40 15.01Q24.79 15.40 25.35 15.61L25.35 15.61L25.35 15.61Q25.90 15.82 26.57 15.82L26.57 15.82L26.57 15.82Q26.92 15.82 27.27 15.76L27.27 15.76L27.27 15.76Q27.61 15.71 27.92 15.62L27.92 15.62L27.92 15.62Q28.23 15.52 28.51 15.39L28.51 15.39L28.51 15.39Q28.78 15.26 28.99 15.11L28.99 15.11L28.99 15.11Q28.47 15.58 27.92 15.89L27.92 15.89L27.92 15.89Q27.37 16.21 26.82 16.40L26.82 16.40L26.82 16.40Q26.27 16.60 25.73 16.69L25.73 16.69L25.73 16.69Q25.20 16.78 24.71 16.78L24.71 16.78L24.71 16.78Q24.21 16.80 23.72 16.63L23.72 16.63L23.72 16.63Q23.24 16.46 22.85 16.12L22.85 16.12L22.85 16.12Q22.45 15.78 22.18 15.27L22.18 15.27L22.18 15.27Q21.90 14.76 21.82 14.08L21.82 14.08L21.82 14.08Q21.79 13.84 21.79 13.62L21.79 13.62L21.79 13.62Q21.79 13.40 21.83 13.18L21.83 13.18L21.83 13.18Q21.59 13.27 21.40 13.34L21.40 13.34L21.40 13.34Q21.21 13.42 21.08 13.49L21.08 13.49L21.08 13.49Q21.28 13.36 21.48 13.24L21.48 13.24L21.48 13.24Q21.68 13.12 21.87 13.02L21.87 13.02L21.87 13.02Q21.98 12.48 22.27 12.00L22.27 12.00L22.27 12.00Q22.55 11.51 22.95 11.09L22.95 11.09L22.95 11.09Q23.35 10.68 23.84 10.34L23.84 10.34L23.84 10.34Q24.34 10.00 24.87 9.76L24.87 9.76L24.87 9.76Q25.40 9.52 25.94 9.39L25.94 9.39L25.94 9.39Q26.49 9.26 27.00 9.26L27.00 9.26L27.00 9.26Q27.34 9.26 27.58 9.37L27.58 9.37L27.58 9.37Q27.82 9.47 27.90 9.73L27.90 9.73L27.90 9.73Q27.94 10.00 27.70 10.32L27.70 10.32L27.70 10.32Q27.60 10.45 27.42 10.61L27.42 10.61L27.42 10.61Q27.25 10.76 26.97 10.93L26.97 10.93L26.97 10.93Q26.69 11.10 26.31 11.29L26.31 11.29L26.31 11.29Q25.92 11.47 25.40 11.66L25.40 11.66ZM24.99 11.68L24.99 11.68L24.99 11.68Q25.28 11.55 25.52 11.40L25.52 11.40L25.52 11.40Q25.75 11.25 25.88 11.09L25.88 11.09L25.88 11.09Q26.02 10.92 26.02 10.75L26.02 10.75L26.02 10.75Q26.03 10.57 25.88 10.37L25.88 10.37L25.88 10.37Q25.78 10.22 25.60 10.16L25.60 10.16L25.60 10.16Q25.42 10.10 25.22 10.10L25.22 10.10L25.22 10.10Q25.05 10.10 24.88 10.14L24.88 10.14L24.88 10.14Q24.72 10.18 24.60 10.24L24.60 10.24L24.60 10.24Q24.51 10.29 24.37 10.45L24.37 10.45L24.37 10.45Q24.23 10.61 24.08 10.87L24.08 10.87L24.08 10.87Q23.93 11.12 23.79 11.46L23.79 11.46L23.79 11.46Q23.66 11.80 23.60 12.20L23.60 12.20L23.60 12.20Q24.03 12.04 24.38 11.92L24.38 11.92L24.38 11.92Q24.73 11.80 24.99 11.68ZM32.52 11.01L32.52 11.01L32.52 11.01Q32.84 10.71 33.22 10.40L33.22 10.40L33.22 10.40Q33.60 10.09 33.99 9.84L33.99 9.84L33.99 9.84Q34.38 9.59 34.78 9.43L34.78 9.43L34.78 9.43Q35.18 9.28 35.53 9.28L35.53 9.28L35.53 9.28Q35.77 9.28 35.99 9.33L35.99 9.33L35.99 9.33Q36.22 9.38 36.45 9.44L36.45 9.44L36.45 9.44Q36.67 9.51 36.89 9.56L36.89 9.56L36.89 9.56Q37.11 9.61 37.33 9.61L37.33 9.61L37.33 9.61Q37.47 9.61 37.62 9.59L37.62 9.59L37.62 9.59Q37.77 9.57 37.96 9.52L37.96 9.52L37.96 9.52Q37.53 9.84 37.21 10.08L37.21 10.08L37.21 10.08Q36.89 10.32 36.61 10.48L36.61 10.48L36.61 10.48Q36.33 10.63 36.05 10.70L36.05 10.70L36.05 10.70Q35.77 10.77 35.43 10.76L35.43 10.76L35.43 10.76Q35.10 10.75 34.80 10.69L34.80 10.69L34.80 10.69Q34.50 10.63 34.26 10.56L34.26 10.56L34.26 10.56Q34.02 10.50 33.83 10.47L33.83 10.47L33.83 10.47Q33.65 10.44 33.55 10.49L33.55 10.49L33.55 10.49Q33.30 10.62 33.12 10.94L33.12 10.94L33.12 10.94Q32.94 11.27 32.81 11.72L32.81 11.72L32.81 11.72Q32.68 12.17 32.60 12.70L32.60 12.70L32.60 12.70Q32.53 13.23 32.49 13.75L32.49 13.75L32.49 13.75Q32.45 14.28 32.45 14.76L32.45 14.76L32.45 14.76Q32.45 15.23 32.48 15.58L32.48 15.58L32.48 15.58Q31.96 15.91 31.63 16.15L31.63 16.15L31.63 16.15Q31.29 16.39 31.10 16.54L31.10 16.54L31.10 16.54Q30.86 16.73 30.74 16.86L30.74 16.86L30.74 16.86Q30.75 16.45 30.76 15.87L30.76 15.87L30.76 15.87Q30.78 15.29 30.79 14.64L30.79 14.64L30.79 14.64Q30.80 14 30.80 13.37L30.80 13.37L30.80 13.37Q30.81 12.74 30.81 12.23L30.81 12.23L30.81 12.23Q30.81 11.91 30.79 11.58L30.79 11.58L30.79 11.58Q30.78 11.25 30.68 10.97L30.68 10.97L30.68 10.97Q30.58 10.70 30.38 10.53L30.38 10.53L30.38 10.53Q30.18 10.36 29.81 10.36L29.81 10.36L29.81 10.36Q29.67 10.36 29.51 10.39L29.51 10.39L29.51 10.39Q29.36 10.42 29.21 10.49L29.21 10.49L29.21 10.49Q29.50 10.30 29.78 10.10L29.78 10.10L29.78 10.10Q30.07 9.91 30.36 9.74L30.36 9.74L30.36 9.74Q30.65 9.58 30.94 9.48L30.94 9.48L30.94 9.48Q31.23 9.39 31.53 9.39L31.53 9.39L31.53 9.39Q31.90 9.39 32.10 9.54L32.10 9.54L32.10 9.54Q32.30 9.70 32.39 9.94L32.39 9.94L32.39 9.94Q32.48 10.18 32.50 10.47L32.50 10.47L32.50 10.47Q32.52 10.75 32.52 11.01ZM46.90 15.49L46.90 15.49L46.90 15.49Q46.61 15.78 46.28 16.01L46.28 16.01L46.28 16.01Q45.95 16.25 45.62 16.42L45.62 16.42L45.62 16.42Q45.28 16.59 44.97 16.69L44.97 16.69L44.97 16.69Q44.65 16.80 44.39 16.81L44.39 16.81L44.39 16.81Q44.25 16.82 44.02 16.81L44.02 16.81L44.02 16.81Q43.80 16.79 43.59 16.69L43.59 16.69L43.59 16.69Q43.38 16.58 43.23 16.37L43.23 16.37L43.23 16.37Q43.08 16.15 43.08 15.74L43.08 15.74L43.08 14.93L43.08 14.93Q42.70 15.30 42.29 15.64L42.29 15.64L42.29 15.64Q41.87 15.98 41.43 16.24L41.43 16.24L41.43 16.24Q40.99 16.50 40.54 16.66L40.54 16.66L40.54 16.66Q40.09 16.81 39.65 16.81L39.65 16.81L39.65 16.81Q39.09 16.81 38.66 16.56L38.66 16.56L38.66 16.56Q38.24 16.31 37.95 15.91L37.95 15.91L37.95 15.91Q37.67 15.52 37.52 15.03L37.52 15.03L37.52 15.03Q37.38 14.53 37.38 14.05L37.38 14.05L37.38 14.05Q37.38 13.69 37.43 13.33L37.43 13.33L37.43 13.33Q37.49 12.98 37.57 12.67L37.57 12.67L37.57 12.67Q37.66 12.35 37.77 12.10L37.77 12.10L37.77 12.10Q37.88 11.85 38.01 11.68L38.01 11.68L38.01 11.68Q38.23 11.38 38.58 11.09L38.58 11.09L38.58 11.09Q38.93 10.80 39.34 10.55L39.34 10.55L39.34 10.55Q39.76 10.29 40.22 10.09L40.22 10.09L40.22 10.09Q40.69 9.88 41.15 9.73L41.15 9.73L41.15 9.73Q41.61 9.58 42.05 9.50L42.05 9.50L42.05 9.50Q42.49 9.42 42.85 9.42L42.85 9.42L42.85 9.42Q43.24 9.42 43.76 9.46L43.76 9.46L43.76 9.46Q44.28 9.50 44.94 9.61L44.94 9.61L44.94 9.61Q44.91 10.40 44.89 11.00L44.89 11.00L44.89 11.00Q44.87 11.60 44.86 12.08L44.86 12.08L44.86 12.08Q44.84 12.55 44.84 12.94L44.84 12.94L44.84 12.94Q44.83 13.33 44.83 13.70L44.83 13.70L44.83 13.70Q44.83 14.08 44.82 14.44L44.82 14.44L44.82 14.44Q44.80 14.80 44.87 15.09L44.87 15.09L44.87 15.09Q44.94 15.37 45.14 15.55L45.14 15.55L45.14 15.55Q45.34 15.73 45.77 15.73L45.77 15.73L45.77 15.73Q46.02 15.73 46.31 15.66L46.31 15.66L46.31 15.66Q46.59 15.60 46.90 15.49ZM43.09 10.60L43.09 10.60L43.09 10.60Q42.68 10.49 42.22 10.44L42.22 10.44L42.22 10.44Q41.75 10.40 41.33 10.40L41.33 10.40L41.33 10.40Q41.10 10.40 40.89 10.41L40.89 10.41L40.89 10.41Q40.68 10.42 40.51 10.45L40.51 10.45L40.51 10.45Q40.34 10.47 40.21 10.50L40.21 10.50L40.21 10.50Q40.08 10.53 40.01 10.57L40.01 10.57L40.01 10.57Q39.89 10.63 39.72 10.87L39.72 10.87L39.72 10.87Q39.56 11.10 39.41 11.45L39.41 11.45L39.41 11.45Q39.26 11.80 39.15 12.24L39.15 12.24L39.15 12.24Q39.05 12.67 39.05 13.14L39.05 13.14L39.05 13.14Q39.05 13.58 39.18 14.03L39.18 14.03L39.18 14.03Q39.31 14.48 39.56 14.83L39.56 14.83L39.56 14.83Q39.81 15.19 40.17 15.41L40.17 15.41L40.17 15.41Q40.54 15.63 41.01 15.63L41.01 15.63L41.01 15.63Q41.45 15.63 41.79 15.49L41.79 15.49L41.79 15.49Q42.14 15.35 42.39 15.10L42.39 15.10L42.39 15.10Q42.64 14.85 42.81 14.51L42.81 14.51L42.81 14.51Q42.98 14.18 43.08 13.79L43.08 13.79L43.08 13.79Q43.08 13.50 43.08 13.18L43.08 13.18L43.08 13.18Q43.08 12.85 43.08 12.46L43.08 12.46L43.08 12.46Q43.08 12.07 43.08 11.61L43.08 11.61L43.08 11.61Q43.09 11.15 43.09 10.60ZM59.59 11.96L59.59 11.96L59.59 11.96Q59.45 12.09 59.29 12.23L59.29 12.23L59.29 12.23Q59.14 12.36 58.96 12.50L58.96 12.50L58.96 12.50Q59.13 12.91 59.30 13.29L59.30 13.29L59.30 13.29Q59.47 13.67 59.61 13.99L59.61 13.99L59.61 13.99Q59.76 14.31 59.89 14.55L59.89 14.55L59.89 14.55Q60.02 14.79 60.12 14.93L60.12 14.93L60.12 14.93Q60.27 15.13 60.44 15.28L60.44 15.28L60.44 15.28Q60.60 15.41 60.81 15.51L60.81 15.51L60.81 15.51Q61.02 15.62 61.27 15.62L61.27 15.62L61.27 15.62Q61.52 15.62 61.82 15.45L61.82 15.45L61.82 15.45Q61.57 15.71 61.29 15.96L61.29 15.96L61.29 15.96Q61.02 16.21 60.71 16.41L60.71 16.41L60.71 16.41Q60.41 16.60 60.08 16.73L60.08 16.73L60.08 16.73Q59.76 16.85 59.42 16.85L59.42 16.85L59.42 16.85Q59.16 16.85 58.94 16.70L58.94 16.70L58.94 16.70Q58.72 16.54 58.51 16.15L58.51 16.15L58.51 16.15Q58.43 16.03 58.31 15.76L58.31 15.76L58.31 15.76Q58.19 15.49 58.03 15.12L58.03 15.12L58.03 15.12Q57.87 14.75 57.67 14.29L57.67 14.29L57.67 14.29Q57.48 13.84 57.28 13.34L57.28 13.34L57.28 13.34Q56.85 13.47 56.35 13.54L56.35 13.54L56.35 13.54Q55.84 13.62 55.26 13.62L55.26 13.62L53.25 13.62L52.68 14.93L52.68 14.93Q52.64 15.06 52.62 15.19L52.62 15.19L52.62 15.19Q52.60 15.33 52.64 15.44L52.64 15.44L52.64 15.44Q52.68 15.54 52.80 15.62L52.80 15.62L52.80 15.62Q52.92 15.69 53.16 15.69L53.16 15.69L53.16 15.69Q53.30 15.69 53.47 15.66L53.47 15.66L53.47 15.66Q53.64 15.63 53.86 15.58L53.86 15.58L53.86 15.58Q53.48 15.94 53.20 16.19L53.20 16.19L53.20 16.19Q52.92 16.45 52.66 16.60L52.66 16.60L52.66 16.60Q52.41 16.76 52.15 16.83L52.15 16.83L52.15 16.83Q51.89 16.91 51.56 16.91L51.56 16.91L51.56 16.91Q51.36 16.91 51.27 16.81L51.27 16.81L51.27 16.81Q51.19 16.71 51.19 16.54L51.19 16.54L51.19 16.54Q51.19 16.32 51.30 16.01L51.30 16.01L51.30 16.01Q51.41 15.70 51.58 15.31L51.58 15.31L51.58 15.31Q51.73 14.96 52.14 14.02L52.14 14.02L52.14 14.02Q52.32 13.62 52.58 13.04L52.58 13.04L52.58 13.04Q52.83 12.47 53.18 11.69L53.18 11.69L53.18 11.69Q53.53 10.90 53.97 9.88L53.97 9.88L53.97 9.88Q54.42 8.87 55.00 7.58L55.00 7.58L55.32 7.31L55.32 7.31Q55.32 7.10 55.35 6.95L55.35 6.95L55.35 6.95Q55.38 6.79 55.45 6.67L55.45 6.67L55.45 6.67Q55.51 6.55 55.60 6.45L55.60 6.45L55.60 6.45Q55.69 6.36 55.79 6.27L55.79 6.27L55.79 6.27Q55.92 6.17 56.09 6.03L56.09 6.03L56.09 6.03Q56.38 5.80 56.93 5.33L56.93 5.33L56.93 5.33Q56.85 5.49 56.82 5.68L56.82 5.68L56.82 5.68Q56.79 5.88 56.79 6.07L56.79 6.07L56.79 6.07Q56.79 6.27 56.81 6.45L56.81 6.45L56.81 6.45Q56.83 6.63 56.85 6.77L56.85 6.77L56.85 6.77Q56.88 6.93 56.93 7.07L56.93 7.07L56.93 7.07Q57.00 7.31 57.19 7.85L57.19 7.85L57.19 7.85Q57.37 8.38 57.63 9.07L57.63 9.07L57.63 9.07Q57.89 9.77 58.19 10.55L58.19 10.55L58.19 10.55Q58.49 11.34 58.79 12.09L58.79 12.09L58.79 12.09Q58.99 12.07 59.14 12.04L59.14 12.04L59.14 12.04Q59.29 12.01 59.39 12.00L59.39 12.00L59.39 12.00Q59.51 11.98 59.59 11.96ZM55.51 8.62L55.51 8.62L55.51 8.62Q55.03 9.68 54.60 10.61L54.60 10.61L54.60 10.61Q54.17 11.53 53.78 12.44L53.78 12.44L53.78 12.44Q54.69 12.42 55.46 12.38L55.46 12.38L55.46 12.38Q56.23 12.34 56.85 12.28L56.85 12.28L56.85 12.28Q56.63 11.75 56.43 11.22L56.43 11.22L56.43 11.22Q56.23 10.69 56.05 10.21L56.05 10.21L56.05 10.21Q55.88 9.73 55.74 9.32L55.74 9.32L55.74 9.32Q55.60 8.91 55.51 8.62ZM67.28 15.29L67.28 15.29L67.28 15.29Q66.60 15.76 66.13 16.06L66.13 16.06L66.13 16.06Q65.67 16.37 65.32 16.55L65.32 16.55L65.32 16.55Q64.98 16.73 64.70 16.80L64.70 16.80L64.70 16.80Q64.42 16.86 64.11 16.86L64.11 16.86L64.11 16.86Q63.85 16.86 63.60 16.74L63.60 16.74L63.60 16.74Q63.35 16.61 63.15 16.27L63.15 16.27L63.15 16.27Q62.96 15.93 62.84 15.34L62.84 15.34L62.84 15.34Q62.73 14.75 62.73 13.82L62.73 13.82L62.73 13.82Q62.73 12.89 62.75 11.88L62.75 11.88L62.75 11.88Q62.77 10.87 62.79 9.85L62.79 9.85L62.79 9.85Q62.82 8.83 62.84 7.85L62.84 7.85L62.84 7.85Q62.86 6.88 62.86 6.03L62.86 6.03L62.86 6.03Q62.86 5.20 62.60 4.73L62.60 4.73L62.60 4.73Q62.35 4.27 61.83 4.27L61.83 4.27L61.83 4.27Q61.67 4.27 61.48 4.31L61.48 4.31L61.48 4.31Q61.29 4.35 61.08 4.46L61.08 4.46L61.08 4.46Q61.35 4.27 61.64 4.07L61.64 4.07L61.64 4.07Q61.93 3.87 62.24 3.71L62.24 3.71L62.24 3.71Q62.54 3.54 62.85 3.44L62.85 3.44L62.85 3.44Q63.16 3.33 63.47 3.33L63.47 3.33L63.47 3.33Q63.86 3.33 64.08 3.52L64.08 3.52L64.08 3.52Q64.31 3.72 64.41 4.01L64.41 4.01L64.41 4.01Q64.52 4.29 64.54 4.63L64.54 4.63L64.54 4.63Q64.57 4.97 64.57 5.26L64.57 5.26L64.57 5.26Q64.56 5.69 64.55 6.31L64.55 6.31L64.55 6.31Q64.54 6.92 64.52 7.63L64.52 7.63L64.52 7.63Q64.51 8.34 64.50 9.10L64.50 9.10L64.50 9.10Q64.48 9.86 64.47 10.59L64.47 10.59L64.47 10.59Q64.46 11.31 64.45 11.97L64.45 11.97L64.45 11.97Q64.44 12.63 64.42 13.13L64.42 13.13L64.42 13.13Q64.41 13.79 64.52 14.28L64.52 14.28L64.52 14.28Q64.63 14.77 64.83 15.09L64.83 15.09L64.83 15.09Q65.04 15.40 65.32 15.55L65.32 15.55L65.32 15.55Q65.61 15.70 65.96 15.70L65.96 15.70L65.96 15.70Q66.59 15.70 67.28 15.29ZM75.58 12.56L75.58 12.56L75.58 12.56Q75.58 13.13 75.42 13.60L75.42 13.60L75.42 13.60Q75.26 14.06 75.04 14.41L75.04 14.41L75.04 14.41Q74.83 14.76 74.60 14.99L74.60 14.99L74.60 14.99Q74.38 15.22 74.24 15.33L74.24 15.33L74.24 15.33Q73.84 15.61 73.42 15.89L73.42 15.89L73.42 15.89Q73.01 16.16 72.57 16.38L72.57 16.38L72.57 16.38Q72.13 16.59 71.66 16.72L71.66 16.72L71.66 16.72Q71.20 16.85 70.70 16.85L70.70 16.85L70.70 16.85Q69.97 16.85 69.32 16.67L69.32 16.67L69.32 16.67Q68.67 16.48 68.18 16.11L68.18 16.11L68.18 16.11Q67.69 15.74 67.41 15.18L67.41 15.18L67.41 15.18Q67.12 14.62 67.12 13.87L67.12 13.87L67.12 13.87Q67.12 13.21 67.35 12.62L67.35 12.62L67.35 12.62Q67.58 12.04 67.97 11.55L67.97 11.55L67.97 11.55Q68.35 11.05 68.87 10.66L68.87 10.66L68.87 10.66Q69.39 10.27 69.97 9.99L69.97 9.99L69.97 9.99Q70.55 9.72 71.17 9.58L71.17 9.58L71.17 9.58Q71.78 9.43 72.36 9.43L72.36 9.43L72.36 9.43Q73.07 9.43 73.66 9.67L73.66 9.67L73.66 9.67Q74.25 9.91 74.68 10.33L74.68 10.33L74.68 10.33Q75.11 10.75 75.34 11.32L75.34 11.32L75.34 11.32Q75.58 11.89 75.58 12.56ZM70.86 10.23L70.86 10.23L70.86 10.23Q70.51 10.23 70.23 10.35L70.23 10.35L70.23 10.35Q69.94 10.48 69.72 10.69L69.72 10.69L69.72 10.69Q69.49 10.91 69.33 11.19L69.33 11.19L69.33 11.19Q69.17 11.48 69.07 11.79L69.07 11.79L69.07 11.79Q68.96 12.10 68.91 12.42L68.91 12.42L68.91 12.42Q68.86 12.74 68.86 13.02L68.86 13.02L68.86 13.02Q68.86 13.65 69.09 14.20L69.09 14.20L69.09 14.20Q69.32 14.75 69.73 15.16L69.73 15.16L69.73 15.16Q70.14 15.57 70.68 15.80L70.68 15.80L70.68 15.80Q71.22 16.04 71.84 16.04L71.84 16.04L71.84 16.04Q72.22 16.04 72.58 15.89L72.58 15.89L72.58 15.89Q72.94 15.74 73.22 15.43L73.22 15.43L73.22 15.43Q73.49 15.11 73.66 14.60L73.66 14.60L73.66 14.60Q73.83 14.10 73.83 13.39L73.83 13.39L73.83 13.39Q73.83 12.77 73.60 12.20L73.60 12.20L73.60 12.20Q73.36 11.62 72.96 11.18L72.96 11.18L72.96 11.18Q72.56 10.75 72.02 10.49L72.02 10.49L72.02 10.49Q71.48 10.23 70.86 10.23ZM87.55 15.29L87.55 15.29L87.55 15.29Q87.04 15.66 86.65 15.93L86.65 15.93L86.65 15.93Q86.27 16.21 85.94 16.38L85.94 16.38L85.94 16.38Q85.61 16.56 85.31 16.63L85.31 16.63L85.31 16.63Q85.01 16.70 84.66 16.68L84.66 16.68L84.66 16.68Q84.40 16.67 84.21 16.57L84.21 16.57L84.21 16.57Q84.02 16.47 83.90 16.28L83.90 16.28L83.90 16.28Q83.77 16.09 83.71 15.81L83.71 15.81L83.71 15.81Q83.64 15.54 83.62 15.16L83.62 15.16L83.62 15.16Q83.23 15.49 82.82 15.78L82.82 15.78L82.82 15.78Q82.40 16.06 81.95 16.27L81.95 16.27L81.95 16.27Q81.50 16.48 81.03 16.60L81.03 16.60L81.03 16.60Q80.55 16.71 80.06 16.71L80.06 16.71L80.06 16.71Q79.37 16.71 78.93 16.51L78.93 16.51L78.93 16.51Q78.50 16.30 78.24 15.93L78.24 15.93L78.24 15.93Q77.98 15.57 77.89 15.05L77.89 15.05L77.89 15.05Q77.79 14.54 77.79 13.92L77.79 13.92L77.79 13.92Q77.79 13.52 77.80 13.13L77.80 13.13L77.80 13.13Q77.81 12.74 77.81 12.37L77.81 12.37L77.81 12.37Q77.81 11.94 77.78 11.57L77.78 11.57L77.78 11.57Q77.75 11.19 77.66 10.91L77.66 10.91L77.66 10.91Q77.57 10.64 77.39 10.48L77.39 10.48L77.39 10.48Q77.22 10.32 76.93 10.32L76.93 10.32L76.93 10.32Q76.69 10.32 76.36 10.44L76.36 10.44L76.36 10.44Q76.61 10.24 76.89 10.04L76.89 10.04L76.89 10.04Q77.16 9.83 77.45 9.67L77.45 9.67L77.45 9.67Q77.75 9.50 78.05 9.40L78.05 9.40L78.05 9.40Q78.35 9.29 78.67 9.29L78.67 9.29L78.67 9.29Q78.96 9.29 79.12 9.43L79.12 9.43L79.12 9.43Q79.29 9.56 79.38 9.78L79.38 9.78L79.38 9.78Q79.47 9.99 79.50 10.26L79.50 10.26L79.50 10.26Q79.52 10.52 79.52 10.77L79.52 10.77L79.52 10.77Q79.52 11.45 79.51 12.07L79.51 12.07L79.51 12.07Q79.50 12.68 79.50 13.30L79.50 13.30L79.50 13.30Q79.50 13.83 79.62 14.24L79.62 14.24L79.62 14.24Q79.73 14.66 79.98 14.94L79.98 14.94L79.98 14.94Q80.23 15.23 80.63 15.37L80.63 15.37L80.63 15.37Q81.03 15.52 81.61 15.50L81.61 15.50L81.61 15.50Q82.04 15.50 82.36 15.44L82.36 15.44L82.36 15.44Q82.69 15.37 82.93 15.22L82.93 15.22L82.93 15.22Q83.17 15.06 83.34 14.80L83.34 14.80L83.34 14.80Q83.51 14.53 83.62 14.12L83.62 14.12L83.62 14.12Q83.64 13.21 83.68 12.39L83.68 12.39L83.68 12.39Q83.71 11.57 83.71 10.76L83.71 10.76L83.71 10.76Q83.71 10.60 83.63 10.48L83.63 10.48L83.63 10.48Q83.57 10.38 83.43 10.33L83.43 10.33L83.43 10.33Q83.29 10.27 83.04 10.34L83.04 10.34L83.04 10.34Q83.23 10.19 83.48 10.01L83.48 10.01L83.48 10.01Q83.73 9.82 83.98 9.66L83.98 9.66L83.98 9.66Q84.24 9.50 84.49 9.39L84.49 9.39L84.49 9.39Q84.74 9.28 84.96 9.28L84.96 9.28L84.96 9.28Q85.19 9.28 85.35 9.41L85.35 9.41L85.35 9.41Q85.52 9.55 85.52 9.81L85.52 9.81L85.52 9.81Q85.52 9.95 85.51 10.32L85.51 10.32L85.51 10.32Q85.51 10.68 85.50 11.17L85.50 11.17L85.50 11.17Q85.49 11.66 85.48 12.20L85.48 12.20L85.48 12.20Q85.48 12.75 85.47 13.25L85.47 13.25L85.47 13.25Q85.46 13.75 85.46 14.16L85.46 14.16L85.46 14.16Q85.46 14.57 85.46 14.78L85.46 14.78L85.46 14.78Q85.48 15.17 85.77 15.35L85.77 15.35L85.77 15.35Q86.06 15.54 86.48 15.54L86.48 15.54L86.48 15.54Q86.73 15.54 87.01 15.47L87.01 15.47L87.01 15.47Q87.29 15.41 87.55 15.29Z"></path></g><!----><g data-v-423bf9ae="" id="f3482765-f983-4fad-a097-6534239023c3" transform="matrix(2.6383677675969017,0,0,2.6383677675969017,-6.527725551840163,-22.12764705995268)" stroke="none" fill="white"><g clip-rule="evenodd"><path d="M2.682 24.413c3.18 6.681 2.694 14.226 14.442 15.195 4.364.164 13.146-.214 17.512 0 13.796 0 11.426-8.834 14.388-15.303-17.081 7.113-32.009 6.304-46.342.108z"></path><path d="M4.891 20.531c4.419-5.063 9.271-8.836 15.359-9.052 3.07 2.642 6.411 3.504 10.396 0 5.877.7 10.941 3.772 16.333 9.593-.594 1.185-2.481 2.262-3.665.539-1.619-2.264-5.713-1.024-5.337 1.132.377 2.208-4.688 3.178-5.388.808-.7-2.369-5.604-2.048-5.929.807-.271 2.803-6.089 2.319-5.766-.214.271-2.532-5.011-3.071-5.497-.863-.485 2.156-5.711 2.425-5.982-.593-.322-3.071-3.931-2.263-3.931-2.263s-.27-.001-.593.106zM17.124 40.471h17.512v2.264H17.124z"></path><path d="M25.476 12.501c1.887 0 3.45-.859 3.45-1.938s-1.563-1.94-3.45-1.94c-1.94 0-3.504.861-3.504 1.94s1.563 1.938 3.504 1.938z"></path></g></g><!----><g data-v-423bf9ae="" id="db3fda00-aca9-4055-a04f-57117a13cec9" fill="white" transform="matrix(0.6666141623776816,0,0,0.6666141623776816,141.8006161963245,57.47353199480063)"><path d="M7.83 3.92L7.48 3.92L1.89 3.92L0.70 3.92L0.70 4.19C0.70 4.34 0.80 4.42 0.98 4.44L1.12 4.44C1.19 4.44 1.29 4.45 1.43 4.45C1.57 4.45 1.72 4.47 1.89 4.47L1.89 13.26C1.72 13.26 1.57 13.27 1.43 13.27C1.29 13.27 1.19 13.29 1.12 13.29L0.98 13.29C0.80 13.30 0.70 13.38 0.70 13.54L0.70 13.82L1.89 13.82L2.60 13.82L3.78 13.82L3.78 13.54C3.78 13.38 3.70 13.30 3.51 13.29L3.37 13.29C3.30 13.29 3.21 13.27 3.07 13.27C2.93 13.27 2.77 13.26 2.60 13.26L2.60 9.27L6.30 9.27L6.30 8.67L2.60 8.67L2.60 4.51L7.21 4.51C7.24 5.18 7.27 5.56 7.27 5.63C7.28 5.85 7.38 5.96 7.57 5.96L7.91 5.96L7.91 3.92ZM24.02 13.29L23.93 13.29L23.74 13.29C23.66 13.29 23.58 13.27 23.49 13.27L20.52 9.53C20.44 9.42 20.33 9.32 20.22 9.25C20.65 9.21 21.04 9.11 21.39 8.96C21.74 8.81 22.02 8.61 22.27 8.37C22.51 8.13 22.71 7.85 22.83 7.55C22.96 7.24 23.03 6.89 23.03 6.51C23.03 5.66 22.75 5.03 22.19 4.58C21.63 4.14 20.78 3.92 19.63 3.92L17.22 3.92L16.04 3.92L16.04 4.19C16.04 4.34 16.13 4.42 16.31 4.44L16.45 4.44C16.52 4.44 16.62 4.45 16.76 4.45C16.90 4.45 17.05 4.47 17.22 4.47L17.22 13.26C17.05 13.26 16.90 13.27 16.76 13.27C16.62 13.27 16.52 13.29 16.45 13.29L16.31 13.29C16.13 13.30 16.03 13.38 16.03 13.54L16.03 13.82L17.22 13.82L17.93 13.82L19.11 13.82L19.11 13.54C19.11 13.38 19.01 13.30 18.83 13.29L18.69 13.29C18.62 13.29 18.52 13.27 18.38 13.27C18.24 13.27 18.10 13.26 17.93 13.26L17.93 9.34L19.11 9.34C19.31 9.34 19.45 9.35 19.53 9.39C19.61 9.44 19.70 9.52 19.78 9.62L22.96 13.64C23.02 13.71 23.06 13.75 23.11 13.78C23.17 13.80 23.24 13.82 23.31 13.82L23.38 13.82L23.93 13.82L24.29 13.82L24.29 13.54C24.29 13.38 24.21 13.30 24.02 13.29ZM19.53 8.81L17.93 8.81L17.93 4.48L19.63 4.48C20.51 4.48 21.18 4.66 21.64 5.00C22.11 5.33 22.33 5.87 22.33 6.57C22.33 6.92 22.27 7.21 22.15 7.49C22.02 7.77 21.83 7.99 21.59 8.19C21.35 8.39 21.06 8.55 20.71 8.65C20.36 8.75 19.96 8.81 19.53 8.81ZM41.45 8.86C41.45 8.11 41.33 7.41 41.10 6.79C40.88 6.17 40.56 5.64 40.14 5.19C39.72 4.75 39.23 4.40 38.65 4.16C38.08 3.92 37.42 3.79 36.72 3.79C36.02 3.79 35.39 3.92 34.82 4.16C34.24 4.40 33.74 4.75 33.32 5.19C32.90 5.64 32.58 6.17 32.35 6.79C32.13 7.41 32.00 8.11 32.00 8.86C32.00 9.63 32.13 10.33 32.35 10.95C32.58 11.56 32.90 12.10 33.32 12.54C33.74 12.99 34.24 13.33 34.82 13.57C35.39 13.80 36.02 13.93 36.72 13.93C37.42 13.93 38.08 13.80 38.65 13.57C39.23 13.33 39.72 12.99 40.14 12.54C40.56 12.10 40.88 11.56 41.10 10.95C41.33 10.33 41.45 9.63 41.45 8.86ZM40.70 8.86C40.70 9.56 40.61 10.18 40.42 10.72C40.22 11.27 39.96 11.75 39.61 12.12C39.26 12.50 38.84 12.81 38.35 13.01C37.86 13.20 37.32 13.30 36.72 13.30C36.13 13.30 35.60 13.20 35.11 13.01C34.62 12.81 34.20 12.50 33.85 12.12C33.50 11.75 33.22 11.27 33.03 10.72C32.83 10.18 32.75 9.56 32.75 8.86C32.75 8.18 32.83 7.55 33.03 7.00C33.22 6.45 33.50 5.98 33.85 5.60C34.20 5.22 34.62 4.91 35.11 4.72C35.60 4.52 36.13 4.41 36.72 4.41C37.32 4.41 37.86 4.52 38.35 4.72C38.84 4.91 39.26 5.22 39.61 5.60C39.96 5.98 40.22 6.45 40.42 7.00C40.61 7.55 40.70 8.18 40.70 8.86ZM61.32 4.44C61.50 4.42 61.60 4.34 61.60 4.19L61.60 3.92L60.42 3.92L59.92 3.92C59.85 3.92 59.81 3.92 59.77 3.93C59.72 3.95 59.70 3.99 59.65 4.05L55.76 10.92C55.72 10.99 55.69 11.06 55.66 11.13C55.64 11.20 55.61 11.28 55.58 11.35C55.52 11.20 55.47 11.06 55.40 10.93L51.39 4.05C51.35 3.99 51.32 3.95 51.28 3.93C51.24 3.92 51.20 3.92 51.13 3.92L50.64 3.92L49.45 3.92L49.45 4.19C49.45 4.34 49.55 4.42 49.73 4.44L49.87 4.44C49.94 4.44 50.04 4.45 50.18 4.45C50.32 4.45 50.47 4.47 50.64 4.47L50.64 13.26C50.47 13.26 50.32 13.27 50.18 13.27C50.04 13.27 49.94 13.29 49.87 13.29L49.73 13.29C49.55 13.30 49.45 13.38 49.45 13.54L49.45 13.82L50.64 13.82L51.25 13.82L52.47 13.82L52.47 13.54C52.47 13.38 52.37 13.30 52.19 13.29L52.05 13.29C51.98 13.29 51.87 13.27 51.73 13.27C51.59 13.27 51.42 13.26 51.25 13.26L51.25 5.38C51.25 5.25 51.25 5.12 51.24 4.98L55.24 11.91C55.31 12.04 55.41 12.10 55.52 12.10L55.64 12.10C55.76 12.10 55.85 12.04 55.92 11.91L59.81 4.98C59.79 5.12 59.79 5.25 59.79 5.38L59.79 13.26C59.63 13.26 59.46 13.27 59.32 13.27C59.18 13.27 59.07 13.29 59.00 13.29L58.86 13.29C58.67 13.30 58.58 13.38 58.58 13.54L58.58 13.82L59.79 13.82L60.42 13.82L61.60 13.82L61.60 13.54C61.60 13.38 61.50 13.30 61.32 13.29L61.19 13.29C61.12 13.29 61.01 13.27 60.87 13.27C60.73 13.27 60.59 13.26 60.42 13.26L60.42 4.47C60.59 4.47 60.73 4.45 60.87 4.45C61.01 4.45 61.12 4.44 61.19 4.44ZM87.43 9.52C87.01 9.11 86.41 8.86 85.62 8.75C85.95 8.67 86.23 8.55 86.48 8.40C86.73 8.25 86.95 8.08 87.12 7.87C87.29 7.66 87.43 7.43 87.51 7.20C87.60 6.96 87.65 6.71 87.65 6.44C87.65 6.05 87.57 5.68 87.44 5.38C87.32 5.07 87.11 4.80 86.84 4.58C86.58 4.37 86.24 4.20 85.82 4.09C85.40 3.98 84.91 3.92 84.35 3.92L81.51 3.92L80.32 3.92L80.32 4.19C80.32 4.34 80.42 4.42 80.60 4.44L80.74 4.44C80.81 4.44 80.91 4.45 81.05 4.45C81.19 4.45 81.34 4.47 81.51 4.47L81.51 13.26C81.34 13.26 81.19 13.27 81.05 13.27C80.91 13.27 80.81 13.29 80.74 13.29L80.60 13.29C80.42 13.30 80.33 13.38 80.33 13.54L80.33 13.82L81.51 13.82L84.71 13.82C85.25 13.82 85.71 13.76 86.13 13.64C86.55 13.51 86.90 13.34 87.18 13.10C87.46 12.87 87.68 12.59 87.84 12.25C87.99 11.91 88.06 11.54 88.06 11.12C88.06 10.46 87.85 9.93 87.43 9.52ZM82.22 4.48L84.35 4.48C85.23 4.48 85.89 4.66 86.31 5.00C86.73 5.35 86.94 5.84 86.94 6.51C86.94 6.76 86.90 7.03 86.80 7.27C86.70 7.50 86.55 7.71 86.34 7.91C86.13 8.11 85.86 8.26 85.54 8.37C85.22 8.48 84.83 8.55 84.36 8.55L82.22 8.55ZM86.67 12.68C86.23 13.06 85.57 13.24 84.70 13.24L82.22 13.24L82.22 9.07L84.71 9.07C85.13 9.07 85.50 9.11 85.82 9.21C86.14 9.31 86.42 9.45 86.65 9.62C86.87 9.80 87.04 10.00 87.16 10.25C87.28 10.50 87.35 10.79 87.35 11.10C87.35 11.79 87.12 12.31 86.67 12.68ZM105.55 13.22L105.08 13.17L101.30 3.91L100.59 3.91L96.80 13.17L96.35 13.22C96.17 13.23 96.08 13.33 96.08 13.50L96.08 13.82L96.53 13.82L96.82 13.82L97.08 13.82L97.17 13.82L98.49 13.82L98.49 13.50C98.49 13.31 98.38 13.23 98.17 13.22C98.15 13.22 98.13 13.20 98.08 13.20C98.04 13.20 97.99 13.19 97.89 13.19C97.79 13.19 97.66 13.19 97.52 13.17L98.50 10.75L98.57 10.57L103.31 10.57L103.38 10.75L104.36 13.17C104.22 13.19 104.10 13.19 104.01 13.19C103.91 13.19 103.84 13.20 103.80 13.20C103.75 13.20 103.73 13.22 103.71 13.22C103.50 13.23 103.39 13.31 103.39 13.50L103.39 13.82L104.71 13.82L104.80 13.82L105.07 13.82L105.35 13.82L105.81 13.82L105.81 13.50C105.81 13.33 105.73 13.23 105.55 13.22ZM100.74 5.22C100.77 5.14 100.81 5.04 100.84 4.94C100.87 4.84 100.91 4.75 100.94 4.63C100.97 4.75 101.01 4.84 101.04 4.94C101.07 5.04 101.11 5.12 101.14 5.21L103.10 10.04L98.80 10.04ZM121.18 12.21C121.16 12.18 121.11 12.15 121.07 12.15C121.04 12.15 121.03 12.15 121.00 12.17C120.99 12.18 120.96 12.21 120.93 12.22C120.74 12.40 120.53 12.56 120.33 12.70C120.13 12.84 119.92 12.94 119.69 13.03C119.45 13.13 119.20 13.20 118.92 13.24C118.64 13.29 118.33 13.31 117.98 13.31C117.42 13.31 116.87 13.22 116.40 13.01C115.91 12.81 115.50 12.52 115.15 12.14C114.80 11.76 114.51 11.28 114.31 10.74C114.11 10.19 114.02 9.56 114.02 8.86C114.02 8.18 114.11 7.56 114.31 7.01C114.52 6.47 114.80 6.01 115.16 5.61C115.53 5.24 115.96 4.94 116.47 4.73C116.97 4.52 117.52 4.42 118.12 4.42C119.01 4.42 119.84 4.56 120.57 4.89C120.61 5.78 120.65 6.30 120.65 6.41C120.67 6.64 120.75 6.75 120.95 6.75L121.28 6.75L121.28 4.51C120.11 4.03 119.04 3.81 118.12 3.81C117.40 3.81 116.76 3.92 116.16 4.17C115.57 4.42 115.04 4.76 114.62 5.21C114.18 5.66 113.86 6.19 113.62 6.80C113.39 7.42 113.27 8.11 113.27 8.86C113.27 9.63 113.40 10.32 113.62 10.95C113.85 11.58 114.17 12.10 114.58 12.54C114.98 12.99 115.47 13.33 116.05 13.57C116.62 13.80 117.24 13.93 117.92 13.93C118.33 13.93 118.71 13.90 119.06 13.83C119.39 13.76 119.71 13.66 120.01 13.54C120.29 13.41 120.55 13.26 120.79 13.09C121.03 12.91 121.25 12.73 121.46 12.50ZM137.97 13.29L137.89 13.29L137.70 13.29C137.62 13.29 137.52 13.27 137.42 13.27L133.39 9.06C133.31 8.96 133.24 8.89 133.15 8.83C133.07 8.78 132.99 8.74 132.89 8.71C132.97 8.68 133.04 8.64 133.11 8.58C133.18 8.53 133.27 8.46 133.35 8.36L137.14 4.45L137.41 4.45C137.49 4.45 137.55 4.44 137.59 4.44L137.68 4.44C137.86 4.42 137.96 4.34 137.96 4.19L137.96 3.91L136.98 3.91L136.85 3.91L135.04 3.91L135.04 4.19C135.04 4.34 135.14 4.42 135.32 4.44L135.49 4.44C135.59 4.44 135.72 4.45 135.88 4.45L136.33 4.45L132.66 8.22C132.61 8.27 132.55 8.33 132.51 8.36C132.47 8.39 132.41 8.40 132.36 8.43C132.30 8.44 132.26 8.47 132.19 8.47C132.12 8.48 132.03 8.48 131.95 8.48L131.36 8.48L131.36 4.45C131.53 4.45 131.68 4.44 131.82 4.44C131.96 4.44 132.06 4.42 132.13 4.42L132.27 4.42C132.45 4.41 132.54 4.33 132.54 4.17L132.54 3.91L131.36 3.91L130.65 3.91L129.47 3.91L129.47 4.17C129.47 4.33 129.57 4.41 129.75 4.42L129.88 4.42C129.95 4.42 130.06 4.44 130.20 4.44C130.34 4.44 130.48 4.45 130.65 4.45L130.65 13.26C130.48 13.26 130.34 13.27 130.20 13.27C130.06 13.27 129.95 13.29 129.88 13.29L129.75 13.29C129.57 13.30 129.47 13.38 129.47 13.54L129.47 13.82L130.65 13.82L131.36 13.82L132.54 13.82L132.54 13.54C132.54 13.38 132.45 13.30 132.27 13.29L132.13 13.29C132.06 13.29 131.96 13.27 131.82 13.27C131.68 13.27 131.53 13.26 131.36 13.26L131.36 9.04L132.01 9.04C132.12 9.04 132.22 9.04 132.29 9.06C132.36 9.07 132.41 9.09 132.47 9.11C132.52 9.14 132.58 9.17 132.62 9.21C132.66 9.25 132.71 9.28 132.76 9.34L136.61 13.27C136.47 13.27 136.30 13.29 136.14 13.29L135.73 13.29L135.55 13.29C135.37 13.30 135.27 13.38 135.27 13.54L135.27 13.82L137.14 13.82L137.20 13.82L137.37 13.82L137.96 13.82L138.25 13.82L138.25 13.54C138.25 13.38 138.15 13.30 137.97 13.29ZM166.63 4.44C166.81 4.42 166.91 4.34 166.91 4.19L166.91 3.92L165.73 3.92L165.00 3.92L163.83 3.92L163.83 4.19C163.83 4.34 163.93 4.42 164.11 4.44L164.23 4.44C164.30 4.44 164.42 4.45 164.56 4.45C164.70 4.45 164.84 4.47 165.00 4.47L165.00 8.53L158.80 8.53L158.80 4.47C158.97 4.47 159.12 4.45 159.26 4.45C159.40 4.45 159.50 4.44 159.57 4.44L159.71 4.44C159.89 4.42 159.98 4.34 159.98 4.19L159.98 3.92L158.80 3.92L158.09 3.92L156.90 3.92L156.90 4.19C156.90 4.34 157.00 4.42 157.18 4.44L157.32 4.44C157.39 4.44 157.49 4.45 157.63 4.45C157.77 4.45 157.92 4.47 158.09 4.47L158.09 13.26C157.92 13.26 157.77 13.27 157.63 13.27C157.49 13.27 157.39 13.29 157.32 13.29L157.18 13.29C157.00 13.30 156.90 13.38 156.90 13.54L156.90 13.82L158.09 13.82L158.80 13.82L159.98 13.82L159.98 13.54C159.98 13.38 159.89 13.30 159.71 13.29L159.57 13.29C159.50 13.29 159.40 13.27 159.26 13.27C159.12 13.27 158.97 13.26 158.80 13.26L158.80 9.07L165.00 9.07L165.00 13.26C164.84 13.26 164.70 13.27 164.56 13.27C164.42 13.27 164.30 13.29 164.23 13.29L164.11 13.29C163.93 13.30 163.83 13.38 163.83 13.54L163.83 13.82L165.00 13.82L165.73 13.82L166.91 13.82L166.91 13.54C166.91 13.38 166.81 13.30 166.63 13.29L166.50 13.29C166.43 13.29 166.32 13.27 166.18 13.27C166.04 13.27 165.90 13.26 165.73 13.26L165.73 4.47C165.90 4.47 166.04 4.45 166.18 4.45C166.32 4.45 166.43 4.44 166.50 4.44ZM184.52 8.86C184.52 8.11 184.39 7.41 184.17 6.79C183.95 6.17 183.62 5.64 183.20 5.19C182.78 4.75 182.29 4.40 181.72 4.16C181.15 3.92 180.49 3.79 179.79 3.79C179.09 3.79 178.46 3.92 177.88 4.16C177.31 4.40 176.81 4.75 176.39 5.19C175.97 5.64 175.64 6.17 175.42 6.79C175.20 7.41 175.07 8.11 175.07 8.86C175.07 9.63 175.20 10.33 175.42 10.95C175.64 11.56 175.97 12.10 176.39 12.54C176.81 12.99 177.31 13.33 177.88 13.57C178.46 13.80 179.09 13.93 179.79 13.93C180.49 13.93 181.15 13.80 181.72 13.57C182.29 13.33 182.78 12.99 183.20 12.54C183.62 12.10 183.95 11.56 184.17 10.95C184.39 10.33 184.52 9.63 184.52 8.86ZM183.76 8.86C183.76 9.56 183.68 10.18 183.48 10.72C183.29 11.27 183.02 11.75 182.67 12.12C182.32 12.50 181.90 12.81 181.41 13.01C180.92 13.20 180.39 13.30 179.79 13.30C179.20 13.30 178.67 13.20 178.18 13.01C177.69 12.81 177.27 12.50 176.92 12.12C176.57 11.75 176.29 11.27 176.09 10.72C175.90 10.18 175.81 9.56 175.81 8.86C175.81 8.18 175.90 7.55 176.09 7.00C176.29 6.45 176.57 5.98 176.92 5.60C177.27 5.22 177.69 4.91 178.18 4.72C178.67 4.52 179.20 4.41 179.79 4.41C180.39 4.41 180.92 4.52 181.41 4.72C181.90 4.91 182.32 5.22 182.67 5.60C183.02 5.98 183.29 6.45 183.48 7.00C183.68 7.55 183.76 8.18 183.76 8.86ZM204.39 4.44C204.57 4.42 204.67 4.34 204.67 4.19L204.67 3.92L203.49 3.92L202.99 3.92C202.92 3.92 202.87 3.92 202.83 3.93C202.79 3.95 202.76 3.99 202.72 4.05L198.83 10.92C198.79 10.99 198.76 11.06 198.73 11.13C198.70 11.20 198.67 11.28 198.65 11.35C198.59 11.20 198.53 11.06 198.46 10.93L194.46 4.05C194.42 3.99 194.39 3.95 194.35 3.93C194.31 3.92 194.26 3.92 194.19 3.92L193.70 3.92L192.51 3.92L192.51 4.19C192.51 4.34 192.61 4.42 192.79 4.44L192.93 4.44C193.00 4.44 193.10 4.45 193.24 4.45C193.38 4.45 193.54 4.47 193.70 4.47L193.70 13.26C193.54 13.26 193.38 13.27 193.24 13.27C193.10 13.27 193.00 13.29 192.93 13.29L192.79 13.29C192.61 13.30 192.51 13.38 192.51 13.54L192.51 13.82L193.70 13.82L194.32 13.82L195.54 13.82L195.54 13.54C195.54 13.38 195.44 13.30 195.26 13.29L195.12 13.29C195.05 13.29 194.94 13.27 194.80 13.27C194.66 13.27 194.49 13.26 194.32 13.26L194.32 5.38C194.32 5.25 194.32 5.12 194.31 4.98L198.31 11.91C198.38 12.04 198.48 12.10 198.59 12.10L198.70 12.10C198.83 12.10 198.91 12.04 198.98 11.91L202.87 4.98C202.86 5.12 202.86 5.25 202.86 5.38L202.86 13.26C202.69 13.26 202.52 13.27 202.38 13.27C202.24 13.27 202.13 13.29 202.06 13.29L201.92 13.29C201.74 13.30 201.64 13.38 201.64 13.54L201.64 13.82L202.86 13.82L203.49 13.82L204.67 13.82L204.67 13.54C204.67 13.38 204.57 13.30 204.39 13.29L204.26 13.29C204.19 13.29 204.08 13.27 203.94 13.27C203.80 13.27 203.66 13.26 203.49 13.26L203.49 4.47C203.66 4.47 203.80 4.45 203.94 4.45C204.08 4.45 204.19 4.44 204.26 4.44ZM214.20 3.92L213.01 3.92L213.01 4.19C213.01 4.34 213.11 4.42 213.29 4.44L213.43 4.44C213.50 4.44 213.60 4.45 213.74 4.45C213.88 4.45 214.03 4.47 214.20 4.47L214.20 13.26C214.03 13.26 213.88 13.27 213.74 13.27C213.60 13.27 213.50 13.29 213.43 13.29L213.29 13.29C213.11 13.30 213.02 13.38 213.02 13.54L213.02 13.82L214.20 13.82L220.14 13.82L220.14 13.22L220.14 11.76L219.79 11.76C219.59 11.76 219.51 11.89 219.49 12.11C219.49 12.14 219.48 12.19 219.48 12.29C219.48 12.39 219.48 12.53 219.46 12.74C219.45 12.95 219.44 13.09 219.44 13.22L214.91 13.22L214.91 9.09L218.86 9.09L218.86 8.51L214.91 8.51L214.91 4.51L219.44 4.51C219.46 5.12 219.49 5.50 219.49 5.63C219.51 5.85 219.59 5.96 219.79 5.96L220.14 5.96L220.14 4.51L220.14 3.92ZM246.61 3.92L246.41 3.92L239.12 3.92L238.91 3.92L238.81 3.92L238.81 5.96L239.16 5.96C239.36 5.96 239.44 5.85 239.46 5.63C239.46 5.53 239.48 5.17 239.51 4.52L242.41 4.52L242.41 13.26C242.24 13.26 242.10 13.27 241.96 13.27C241.82 13.27 241.71 13.29 241.64 13.29L241.51 13.29C241.33 13.30 241.23 13.38 241.23 13.54L241.23 13.82L242.41 13.82L243.12 13.82L244.31 13.82L244.31 13.54C244.31 13.38 244.22 13.30 244.03 13.29L243.89 13.29C243.82 13.29 243.73 13.27 243.59 13.27C243.45 13.27 243.29 13.26 243.12 13.26L243.12 4.52L246.01 4.52C246.05 5.24 246.06 5.60 246.06 5.63C246.08 5.85 246.18 5.96 246.37 5.96L246.71 5.96L246.71 3.92ZM264.00 8.86C264.00 8.11 263.87 7.41 263.65 6.79C263.42 6.17 263.10 5.64 262.68 5.19C262.26 4.75 261.77 4.40 261.20 4.16C260.62 3.92 259.97 3.79 259.27 3.79C258.57 3.79 257.94 3.92 257.36 4.16C256.79 4.40 256.28 4.75 255.86 5.19C255.44 5.64 255.12 6.17 254.90 6.79C254.67 7.41 254.55 8.11 254.55 8.86C254.55 9.63 254.67 10.33 254.90 10.95C255.12 11.56 255.44 12.10 255.86 12.54C256.28 12.99 256.79 13.33 257.36 13.57C257.94 13.80 258.57 13.93 259.27 13.93C259.97 13.93 260.62 13.80 261.20 13.57C261.77 13.33 262.26 12.99 262.68 12.54C263.10 12.10 263.42 11.56 263.65 10.95C263.87 10.33 264.00 9.63 264.00 8.86ZM263.24 8.86C263.24 9.56 263.16 10.18 262.96 10.72C262.77 11.27 262.50 11.75 262.15 12.12C261.80 12.50 261.38 12.81 260.89 13.01C260.40 13.20 259.87 13.30 259.27 13.30C258.68 13.30 258.15 13.20 257.66 13.01C257.17 12.81 256.75 12.50 256.40 12.12C256.05 11.75 255.77 11.27 255.57 10.72C255.37 10.18 255.29 9.56 255.29 8.86C255.29 8.18 255.37 7.55 255.57 7.00C255.77 6.45 256.05 5.98 256.40 5.60C256.75 5.22 257.17 4.91 257.66 4.72C258.15 4.52 258.68 4.41 259.27 4.41C259.87 4.41 260.40 4.52 260.89 4.72C261.38 4.91 261.80 5.22 262.15 5.60C262.50 5.98 262.77 6.45 262.96 7.00C263.16 7.55 263.24 8.18 263.24 8.86ZM290.78 3.92L290.71 3.92L290.15 3.92L290.04 3.92L288.64 3.92L288.64 4.19C288.64 4.34 288.74 4.42 288.92 4.44L289.03 4.44C289.09 4.44 289.16 4.45 289.27 4.45C289.38 4.45 289.51 4.47 289.65 4.47L287.06 8.64C286.99 8.75 286.93 8.85 286.89 8.95C286.85 9.04 286.80 9.16 286.76 9.25C286.72 9.16 286.68 9.04 286.64 8.95C286.59 8.85 286.54 8.75 286.47 8.64L283.86 4.47C284.00 4.47 284.13 4.45 284.24 4.45C284.35 4.45 284.44 4.44 284.49 4.44L284.59 4.44C284.77 4.42 284.87 4.34 284.87 4.19L284.87 3.92L283.47 3.92L283.36 3.92L282.80 3.92L282.73 3.92L282.28 3.92L282.28 4.19C282.28 4.34 282.38 4.42 282.56 4.44C282.80 4.45 282.98 4.47 283.08 4.47L286.40 9.73L286.40 13.26C286.23 13.26 286.08 13.27 285.94 13.27C285.80 13.27 285.70 13.29 285.63 13.29L285.50 13.29C285.32 13.30 285.22 13.38 285.22 13.54L285.22 13.82L286.40 13.82L287.11 13.82L288.29 13.82L288.29 13.54C288.29 13.38 288.20 13.30 288.02 13.29L287.88 13.29C287.81 13.29 287.71 13.27 287.57 13.27C287.43 13.27 287.28 13.26 287.11 13.26L287.11 9.73L290.43 4.47C290.54 4.47 290.71 4.45 290.95 4.44C291.13 4.42 291.23 4.34 291.23 4.19L291.23 3.92ZM307.97 8.86C307.97 8.11 307.85 7.41 307.62 6.79C307.40 6.17 307.08 5.64 306.66 5.19C306.24 4.75 305.75 4.40 305.17 4.16C304.60 3.92 303.94 3.79 303.24 3.79C302.54 3.79 301.91 3.92 301.34 4.16C300.76 4.40 300.26 4.75 299.84 5.19C299.42 5.64 299.10 6.17 298.87 6.79C298.65 7.41 298.52 8.11 298.52 8.86C298.52 9.63 298.65 10.33 298.87 10.95C299.10 11.56 299.42 12.10 299.84 12.54C300.26 12.99 300.76 13.33 301.34 13.57C301.91 13.80 302.54 13.93 303.24 13.93C303.94 13.93 304.60 13.80 305.17 13.57C305.75 13.33 306.24 12.99 306.66 12.54C307.08 12.10 307.40 11.56 307.62 10.95C307.85 10.33 307.97 9.63 307.97 8.86ZM307.22 8.86C307.22 9.56 307.13 10.18 306.94 10.72C306.74 11.27 306.47 11.75 306.12 12.12C305.77 12.50 305.35 12.81 304.86 13.01C304.37 13.20 303.84 13.30 303.24 13.30C302.65 13.30 302.12 13.20 301.63 13.01C301.14 12.81 300.72 12.50 300.37 12.12C300.02 11.75 299.74 11.27 299.54 10.72C299.35 10.18 299.26 9.56 299.26 8.86C299.26 8.18 299.35 7.55 299.54 7.00C299.74 6.45 300.02 5.98 300.37 5.60C300.72 5.22 301.14 4.91 301.63 4.72C302.12 4.52 302.65 4.41 303.24 4.41C303.84 4.41 304.37 4.52 304.86 4.72C305.35 4.91 305.77 5.22 306.12 5.60C306.47 5.98 306.74 6.45 306.94 7.00C307.13 7.55 307.22 8.18 307.22 8.86ZM324.21 3.92L323.50 3.92L322.14 3.92L322.14 4.19C322.14 4.34 322.24 4.42 322.42 4.44L322.59 4.44C322.69 4.44 322.83 4.45 322.99 4.45C323.16 4.45 323.33 4.47 323.50 4.47L323.50 10.04C323.50 10.50 323.43 10.92 323.29 11.33C323.15 11.73 322.95 12.08 322.69 12.38C322.42 12.67 322.11 12.89 321.73 13.06C321.36 13.23 320.94 13.31 320.46 13.31C319.98 13.31 319.55 13.23 319.17 13.06C318.79 12.89 318.47 12.66 318.22 12.36C317.95 12.07 317.77 11.72 317.63 11.33C317.49 10.93 317.42 10.50 317.42 10.04L317.42 4.47C317.59 4.47 317.76 4.45 317.93 4.45C318.09 4.45 318.23 4.44 318.33 4.44L318.50 4.44C318.68 4.42 318.78 4.34 318.78 4.19L318.78 3.92L317.42 3.92L316.71 3.92L315.53 3.92L315.53 4.19C315.53 4.34 315.62 4.42 315.80 4.44L315.94 4.44C316.01 4.44 316.11 4.45 316.25 4.45C316.39 4.45 316.54 4.47 316.71 4.47L316.71 10.04C316.71 10.58 316.79 11.09 316.96 11.56C317.13 12.04 317.38 12.46 317.70 12.81C318.02 13.16 318.43 13.44 318.89 13.64C319.35 13.83 319.89 13.93 320.46 13.93C321.03 13.93 321.55 13.83 322.01 13.64C322.48 13.44 322.88 13.16 323.20 12.81C323.53 12.46 323.78 12.04 323.95 11.56C324.11 11.09 324.21 10.58 324.21 10.04L324.21 4.47C324.38 4.47 324.52 4.45 324.66 4.45C324.80 4.45 324.91 4.44 324.98 4.44L325.11 4.44C325.29 4.42 325.39 4.34 325.39 4.19L325.39 3.92ZM334.53 3.91L333.89 3.91L333.89 7.91L333.89 8.51C333.89 8.69 333.89 8.89 333.90 9.09C333.90 9.28 333.93 9.49 333.94 9.70C333.96 9.91 333.96 10.14 333.97 10.40L334.43 10.40C334.45 10.14 334.46 9.91 334.47 9.70C334.49 9.49 334.50 9.28 334.50 9.09C334.50 8.89 334.53 8.69 334.53 8.51L334.53 7.91ZM333.54 13.27C333.54 13.45 333.59 13.61 333.72 13.73C333.84 13.86 334.00 13.92 334.18 13.92C334.26 13.92 334.35 13.90 334.43 13.87C334.52 13.85 334.59 13.79 334.64 13.73C334.70 13.68 334.75 13.62 334.78 13.54C334.81 13.45 334.84 13.37 334.84 13.27C334.84 13.19 334.81 13.10 334.78 13.02C334.75 12.94 334.70 12.88 334.64 12.82C334.59 12.77 334.52 12.71 334.43 12.68C334.35 12.66 334.26 12.63 334.18 12.63C334.08 12.63 334.01 12.66 333.93 12.68C333.84 12.71 333.77 12.77 333.72 12.82C333.66 12.88 333.61 12.94 333.58 13.02C333.55 13.10 333.54 13.19 333.54 13.27Z"></path></g></svg>