<svg data-v-fde0c5aa="" xmlns="http://www.w3.org/2000/svg" viewBox="0 0 300 300" class="font"><!----><defs data-v-fde0c5aa=""><!----></defs><rect data-v-fde0c5aa="" fill="#EFC812" x="0" y="0" width="300px" height="300px" class="logo-background-square"></rect><defs data-v-fde0c5aa=""><!----></defs><g data-v-fde0c5aa="" id="c45570f2-485d-497c-ac23-428617a59730" fill="#783834" transform="matrix(2.5177384722631624,0,0,2.5177384722631624,39.571984417695965,117.91142345913829)"><path d="M5.73 15.65L5.73 15.65L5.73 15.65Q5.33 15.92 4.94 16.15L4.94 16.15L4.94 16.15Q4.55 16.38 4.19 16.55L4.19 16.55L4.19 16.55Q3.83 16.72 3.51 16.83L3.51 16.83L3.51 16.83Q3.19 16.93 2.93 16.96L2.93 16.96L2.93 16.96Q2.66 16.99 2.46 16.98L2.46 16.98L2.46 16.98Q2.26 16.98 2.12 16.89L2.12 16.89L2.12 16.89Q1.98 16.80 1.91 16.61L1.91 16.61L1.91 16.61Q1.85 16.42 1.85 16.08L1.85 16.08L1.85 16.08Q1.85 15.91 1.85 15.49L1.85 15.49L1.85 15.49Q1.85 15.07 1.86 14.48L1.86 14.48L1.86 14.48Q1.86 13.90 1.87 13.20L1.87 13.20L1.87 13.20Q1.87 12.51 1.88 11.80L1.88 11.80L1.88 11.80Q1.89 11.09 1.89 10.41L1.89 10.41L1.89 10.41Q1.90 9.73 1.91 9.18L1.91 9.18L1.91 9.18Q1.91 8.63 1.92 8.25L1.92 8.25L1.92 8.25Q1.93 7.88 1.93 7.77L1.93 7.77L1.93 7.77Q1.94 7.53 1.73 7.43L1.73 7.43L1.73 7.43Q1.52 7.33 1.22 7.33L1.22 7.33L1.22 7.33Q0.96 7.33 0.69 7.38L0.69 7.38L0.69 7.38Q0.42 7.42 0.17 7.49L0.17 7.49L0.17 7.49Q0.52 7.25 0.86 7.06L0.86 7.06L0.86 7.06Q1.20 6.86 1.54 6.72L1.54 6.72L1.54 6.72Q1.89 6.58 2.24 6.50L2.24 6.50L2.24 6.50Q2.60 6.42 2.98 6.42L2.98 6.42L2.98 6.42Q3.13 6.42 3.26 6.44L3.26 6.44L3.26 6.44Q3.40 6.45 3.50 6.49L3.50 6.49L3.50 6.49Q3.60 6.53 3.65 6.59L3.65 6.59L3.65 6.59Q3.71 6.65 3.71 6.74L3.71 6.74L3.71 6.74Q3.71 7.01 3.71 8.03L3.71 8.03L3.71 8.03Q3.71 8.47 3.70 9.12L3.70 9.12L3.70 9.12Q3.70 9.77 3.69 10.69L3.69 10.69L3.69 10.69Q3.69 11.61 3.69 12.82L3.69 12.82L3.69 12.82Q3.68 14.04 3.68 15.61L3.68 15.61L3.68 15.61Q4.05 15.68 4.36 15.71L4.36 15.71L4.36 15.71Q4.66 15.73 4.90 15.73L4.90 15.73L4.90 15.73Q5.10 15.73 5.25 15.72L5.25 15.72L5.25 15.72Q5.41 15.70 5.52 15.69L5.52 15.69L5.52 15.69Q5.64 15.67 5.73 15.65ZM8.98 15.78L8.98 15.78L7.35 16.96L7.35 16.96Q7.41 15.64 7.44 14.71L7.44 14.71L7.44 14.71Q7.48 13.78 7.49 13.18L7.49 13.18L7.49 13.18Q7.51 12.48 7.51 12.02L7.51 12.02L7.51 12.02Q7.55 11.19 7.29 10.72L7.29 10.72L7.29 10.72Q7.03 10.25 6.49 10.25L6.49 10.25L6.49 10.25Q6.32 10.25 6.14 10.31L6.14 10.31L6.14 10.31Q5.95 10.36 5.74 10.45L5.74 10.45L5.74 10.45Q6.00 10.26 6.30 10.06L6.30 10.06L6.30 10.06Q6.59 9.86 6.90 9.69L6.90 9.69L6.90 9.69Q7.21 9.53 7.52 9.42L7.52 9.42L7.52 9.42Q7.83 9.32 8.13 9.32L8.13 9.32L8.13 9.32Q8.42 9.32 8.65 9.43L8.65 9.43L8.65 9.43Q8.89 9.55 9.01 9.82L9.01 9.82L9.01 9.82Q9.12 10.06 9.16 10.34L9.16 10.34L9.16 10.34Q9.21 10.63 9.22 10.97L9.22 10.97L9.22 10.97Q9.57 10.60 10.00 10.28L10.00 10.28L10.00 10.28Q10.44 9.96 10.91 9.73L10.91 9.73L10.91 9.73Q11.38 9.51 11.86 9.40L11.86 9.40L11.86 9.40Q12.34 9.29 12.76 9.34L12.76 9.34L12.76 9.34Q13.07 9.39 13.40 9.52L13.40 9.52L13.40 9.52Q13.73 9.65 14.01 9.91L14.01 9.91L14.01 9.91Q14.29 10.18 14.46 10.61L14.46 10.61L14.46 10.61Q14.63 11.05 14.62 11.70L14.62 11.70L14.62 11.70Q14.59 12.46 14.55 13.10L14.55 13.10L14.55 13.10Q14.50 13.74 14.50 14.23L14.50 14.23L14.50 14.23Q14.50 14.53 14.55 14.79L14.55 14.79L14.55 14.79Q14.59 15.05 14.71 15.25L14.71 15.25L14.71 15.25Q14.83 15.44 15.04 15.56L15.04 15.56L15.04 15.56Q15.24 15.67 15.55 15.67L15.55 15.67L15.55 15.67Q15.83 15.67 16.13 15.57L16.13 15.57L16.13 15.57Q16.43 15.46 16.74 15.24L16.74 15.24L16.74 15.24Q16.24 15.69 15.83 15.99L15.83 15.99L15.83 15.99Q15.42 16.29 15.06 16.47L15.06 16.47L15.06 16.47Q14.70 16.66 14.40 16.74L14.40 16.74L14.40 16.74Q14.09 16.82 13.80 16.81L13.80 16.81L13.80 16.81Q13.51 16.80 13.31 16.70L13.31 16.70L13.31 16.70Q13.10 16.59 12.98 16.37L12.98 16.37L12.98 16.37Q12.86 16.15 12.81 15.79L12.81 15.79L12.81 15.79Q12.76 15.44 12.78 14.93L12.78 14.93L12.78 14.93Q12.80 14.48 12.83 13.94L12.83 13.94L12.83 13.94Q12.87 13.39 12.87 12.86L12.87 12.86L12.87 12.86Q12.87 12.25 12.78 11.81L12.78 11.81L12.78 11.81Q12.70 11.38 12.49 11.09L12.49 11.09L12.49 11.09Q12.27 10.81 11.89 10.67L11.89 10.67L11.89 10.67Q11.51 10.53 10.92 10.53L10.92 10.53L10.92 10.53Q10.49 10.53 10.19 10.70L10.19 10.70L10.19 10.70Q9.88 10.87 9.69 11.16L9.69 11.16L9.69 11.16Q9.49 11.44 9.38 11.82L9.38 11.82L9.38 11.82Q9.26 12.20 9.20 12.63L9.20 12.63L9.20 12.63Q9.15 13.06 9.13 13.50L9.13 13.50L9.13 13.50Q9.11 13.95 9.10 14.37L9.10 14.37L9.10 14.37Q9.08 14.79 9.06 15.15L9.06 15.15L9.06 15.15Q9.04 15.52 8.98 15.78ZM19.78 3.77L19.78 3.77L19.78 3.77Q19.78 3.99 19.79 4.18L19.79 4.18L19.79 4.18Q19.80 4.38 19.80 4.56L19.80 4.56L19.80 4.56Q19.80 4.94 19.73 5.22L19.73 5.22L19.73 5.22Q19.65 5.50 19.40 5.65L19.40 5.65L19.40 5.65Q19.25 5.76 19.02 5.91L19.02 5.91L19.02 5.91Q18.83 6.04 18.53 6.22L18.53 6.22L18.53 6.22Q18.24 6.41 17.82 6.66L17.82 6.66L17.82 6.66Q17.90 6.44 17.94 6.13L17.94 6.13L17.94 6.13Q17.98 5.82 17.99 5.54L17.99 5.54L17.99 5.54Q18.01 5.21 17.99 4.85L17.99 4.85L17.99 4.85Q18.42 4.63 18.75 4.43L18.75 4.43L18.75 4.43Q19.08 4.24 19.31 4.09L19.31 4.09L19.31 4.09Q19.58 3.92 19.78 3.77ZM19.57 10.04L19.57 10.04L19.57 10.04Q19.61 10.16 19.62 10.57L19.62 10.57L19.62 10.57Q19.63 10.98 19.63 11.57L19.63 11.57L19.63 11.57Q19.63 12.09 19.62 12.69L19.62 12.69L19.62 12.69Q19.61 13.30 19.60 13.93L19.60 13.93L19.60 13.93Q19.59 14.55 19.58 15.16L19.58 15.16L19.58 15.16Q19.56 15.76 19.55 16.27L19.55 16.27L19.55 16.27Q19.54 16.78 19.53 17.14L19.53 17.14L19.53 17.14Q19.52 17.51 19.52 17.66L19.52 17.66L19.52 17.66Q19.50 18.43 18.92 19.26L18.92 19.26L18.92 19.26Q18.35 20.09 17.17 20.92L17.17 20.92L17.17 20.92Q16.68 21.27 16.21 21.50L16.21 21.50L16.21 21.50Q15.75 21.74 15.33 21.88L15.33 21.88L15.33 21.88Q14.90 22.03 14.52 22.09L14.52 22.09L14.52 22.09Q14.14 22.16 13.83 22.16L13.83 22.16L13.83 22.16Q13.64 22.16 13.40 22.11L13.40 22.11L13.40 22.11Q13.15 22.07 12.90 21.98L12.90 21.98L12.90 21.98Q12.65 21.90 12.42 21.79L12.42 21.79L12.42 21.79Q12.19 21.68 12.04 21.55L12.04 21.55L12.04 21.55Q11.89 21.42 11.86 21.28L11.86 21.28L11.86 21.28Q11.83 21.14 11.96 21.01L11.96 21.01L11.96 21.01Q12.09 20.88 12.33 20.70L12.33 20.70L12.33 20.70Q12.54 20.54 12.88 20.30L12.88 20.30L12.88 20.30Q13.22 20.06 13.73 19.71L13.73 19.71L13.73 19.71Q13.64 19.80 13.60 19.90L13.60 19.90L13.60 19.90Q13.56 19.99 13.56 20.07L13.56 20.07L13.56 20.07Q13.56 20.25 13.71 20.39L13.71 20.39L13.71 20.39Q13.85 20.52 14.07 20.61L14.07 20.61L14.07 20.61Q14.29 20.71 14.57 20.76L14.57 20.76L14.57 20.76Q14.84 20.82 15.10 20.86L15.10 20.86L15.10 20.86Q15.36 20.89 15.57 20.90L15.57 20.90L15.57 20.90Q15.78 20.91 15.89 20.91L15.89 20.91L15.89 20.91Q16.32 20.91 16.63 20.77L16.63 20.77L16.63 20.77Q16.93 20.64 17.14 20.41L17.14 20.41L17.14 20.41Q17.35 20.17 17.48 19.87L17.48 19.87L17.48 19.87Q17.60 19.56 17.67 19.22L17.67 19.22L17.67 19.22Q17.74 18.87 17.76 18.52L17.76 18.52L17.76 18.52Q17.79 18.16 17.79 17.83L17.79 17.83L17.79 17.83Q17.79 17.74 17.80 17.39L17.80 17.39L17.80 17.39Q17.81 17.04 17.81 16.52L17.81 16.52L17.81 16.52Q17.82 16.01 17.83 15.39L17.83 15.39L17.83 15.39Q17.83 14.77 17.84 14.14L17.84 14.14L17.84 14.14Q17.84 13.51 17.85 12.93L17.85 12.93L17.85 12.93Q17.85 12.35 17.85 11.92L17.85 11.92L17.85 11.92Q17.85 11.07 17.72 10.70L17.72 10.70L17.72 10.70Q17.59 10.33 17.23 10.33L17.23 10.33L17.23 10.33Q17.12 10.33 16.98 10.36L16.98 10.36L16.98 10.36Q16.84 10.38 16.69 10.44L16.69 10.44L16.69 10.44Q16.92 10.27 17.17 10.10L17.17 10.10L17.17 10.10Q17.42 9.93 17.69 9.79L17.69 9.79L17.69 9.79Q17.96 9.65 18.23 9.56L18.23 9.56L18.23 9.56Q18.50 9.47 18.79 9.47L18.79 9.47L18.79 9.47Q19.07 9.47 19.29 9.60L19.29 9.60L19.29 9.60Q19.51 9.73 19.57 10.04ZM25.40 11.66L30.41 10.02L30.41 10.02Q29.62 10.40 28.95 10.70L28.95 10.70L28.95 10.70Q28.27 11.00 27.76 11.20L27.76 11.20L27.76 11.20Q27.17 11.44 26.67 11.63L26.67 11.63L26.67 11.63Q26.36 11.76 25.99 11.89L25.99 11.89L25.99 11.89Q25.61 12.02 25.21 12.15L25.21 12.15L25.21 12.15Q24.81 12.28 24.39 12.40L24.39 12.40L24.39 12.40Q23.97 12.53 23.56 12.65L23.56 12.65L23.56 12.79L23.56 12.79Q23.56 13.49 23.78 14.05L23.78 14.05L23.78 14.05Q24.00 14.62 24.40 15.01L24.40 15.01L24.40 15.01Q24.79 15.40 25.35 15.61L25.35 15.61L25.35 15.61Q25.90 15.82 26.57 15.82L26.57 15.82L26.57 15.82Q26.92 15.82 27.27 15.76L27.27 15.76L27.27 15.76Q27.61 15.71 27.92 15.62L27.92 15.62L27.92 15.62Q28.23 15.52 28.51 15.39L28.51 15.39L28.51 15.39Q28.78 15.26 28.99 15.11L28.99 15.11L28.99 15.11Q28.47 15.58 27.92 15.89L27.92 15.89L27.92 15.89Q27.37 16.21 26.82 16.40L26.82 16.40L26.82 16.40Q26.27 16.60 25.73 16.69L25.73 16.69L25.73 16.69Q25.20 16.78 24.71 16.78L24.71 16.78L24.71 16.78Q24.21 16.80 23.72 16.63L23.72 16.63L23.72 16.63Q23.24 16.46 22.85 16.12L22.85 16.12L22.85 16.12Q22.45 15.78 22.18 15.27L22.18 15.27L22.18 15.27Q21.90 14.76 21.82 14.08L21.82 14.08L21.82 14.08Q21.79 13.84 21.79 13.62L21.79 13.62L21.79 13.62Q21.79 13.40 21.83 13.18L21.83 13.18L21.83 13.18Q21.59 13.27 21.40 13.34L21.40 13.34L21.40 13.34Q21.21 13.42 21.08 13.49L21.08 13.49L21.08 13.49Q21.28 13.36 21.48 13.24L21.48 13.24L21.48 13.24Q21.68 13.12 21.87 13.02L21.87 13.02L21.87 13.02Q21.98 12.48 22.27 12.00L22.27 12.00L22.27 12.00Q22.55 11.51 22.95 11.09L22.95 11.09L22.95 11.09Q23.35 10.68 23.84 10.34L23.84 10.34L23.84 10.34Q24.34 10.00 24.87 9.76L24.87 9.76L24.87 9.76Q25.40 9.52 25.94 9.39L25.94 9.39L25.94 9.39Q26.49 9.26 27.00 9.26L27.00 9.26L27.00 9.26Q27.34 9.26 27.58 9.37L27.58 9.37L27.58 9.37Q27.82 9.47 27.90 9.73L27.90 9.73L27.90 9.73Q27.94 10.00 27.70 10.32L27.70 10.32L27.70 10.32Q27.60 10.45 27.42 10.61L27.42 10.61L27.42 10.61Q27.25 10.76 26.97 10.93L26.97 10.93L26.97 10.93Q26.69 11.10 26.31 11.29L26.31 11.29L26.31 11.29Q25.92 11.47 25.40 11.66L25.40 11.66ZM24.99 11.68L24.99 11.68L24.99 11.68Q25.28 11.55 25.52 11.40L25.52 11.40L25.52 11.40Q25.75 11.25 25.88 11.09L25.88 11.09L25.88 11.09Q26.02 10.92 26.02 10.75L26.02 10.75L26.02 10.75Q26.03 10.57 25.88 10.37L25.88 10.37L25.88 10.37Q25.78 10.22 25.60 10.16L25.60 10.16L25.60 10.16Q25.42 10.10 25.22 10.10L25.22 10.10L25.22 10.10Q25.05 10.10 24.88 10.14L24.88 10.14L24.88 10.14Q24.72 10.18 24.60 10.24L24.60 10.24L24.60 10.24Q24.51 10.29 24.37 10.45L24.37 10.45L24.37 10.45Q24.23 10.61 24.08 10.87L24.08 10.87L24.08 10.87Q23.93 11.12 23.79 11.46L23.79 11.46L23.79 11.46Q23.66 11.80 23.60 12.20L23.60 12.20L23.60 12.20Q24.03 12.04 24.38 11.92L24.38 11.92L24.38 11.92Q24.73 11.80 24.99 11.68ZM32.52 11.01L32.52 11.01L32.52 11.01Q32.84 10.71 33.22 10.40L33.22 10.40L33.22 10.40Q33.60 10.09 33.99 9.84L33.99 9.84L33.99 9.84Q34.38 9.59 34.78 9.43L34.78 9.43L34.78 9.43Q35.18 9.28 35.53 9.28L35.53 9.28L35.53 9.28Q35.77 9.28 35.99 9.33L35.99 9.33L35.99 9.33Q36.22 9.38 36.45 9.44L36.45 9.44L36.45 9.44Q36.67 9.51 36.89 9.56L36.89 9.56L36.89 9.56Q37.11 9.61 37.33 9.61L37.33 9.61L37.33 9.61Q37.47 9.61 37.62 9.59L37.62 9.59L37.62 9.59Q37.77 9.57 37.96 9.52L37.96 9.52L37.96 9.52Q37.53 9.84 37.21 10.08L37.21 10.08L37.21 10.08Q36.89 10.32 36.61 10.48L36.61 10.48L36.61 10.48Q36.33 10.63 36.05 10.70L36.05 10.70L36.05 10.70Q35.77 10.77 35.43 10.76L35.43 10.76L35.43 10.76Q35.10 10.75 34.80 10.69L34.80 10.69L34.80 10.69Q34.50 10.63 34.26 10.56L34.26 10.56L34.26 10.56Q34.02 10.50 33.83 10.47L33.83 10.47L33.83 10.47Q33.65 10.44 33.55 10.49L33.55 10.49L33.55 10.49Q33.30 10.62 33.12 10.94L33.12 10.94L33.12 10.94Q32.94 11.27 32.81 11.72L32.81 11.72L32.81 11.72Q32.68 12.17 32.60 12.70L32.60 12.70L32.60 12.70Q32.53 13.23 32.49 13.75L32.49 13.75L32.49 13.75Q32.45 14.28 32.45 14.76L32.45 14.76L32.45 14.76Q32.45 15.23 32.48 15.58L32.48 15.58L32.48 15.58Q31.96 15.91 31.63 16.15L31.63 16.15L31.63 16.15Q31.29 16.39 31.10 16.54L31.10 16.54L31.10 16.54Q30.86 16.73 30.74 16.86L30.74 16.86L30.74 16.86Q30.75 16.45 30.76 15.87L30.76 15.87L30.76 15.87Q30.78 15.29 30.79 14.64L30.79 14.64L30.79 14.64Q30.80 14 30.80 13.37L30.80 13.37L30.80 13.37Q30.81 12.74 30.81 12.23L30.81 12.23L30.81 12.23Q30.81 11.91 30.79 11.58L30.79 11.58L30.79 11.58Q30.78 11.25 30.68 10.97L30.68 10.97L30.68 10.97Q30.58 10.70 30.38 10.53L30.38 10.53L30.38 10.53Q30.18 10.36 29.81 10.36L29.81 10.36L29.81 10.36Q29.67 10.36 29.51 10.39L29.51 10.39L29.51 10.39Q29.36 10.42 29.21 10.49L29.21 10.49L29.21 10.49Q29.50 10.30 29.78 10.10L29.78 10.10L29.78 10.10Q30.07 9.91 30.36 9.74L30.36 9.74L30.36 9.74Q30.65 9.58 30.94 9.48L30.94 9.48L30.94 9.48Q31.23 9.39 31.53 9.39L31.53 9.39L31.53 9.39Q31.90 9.39 32.10 9.54L32.10 9.54L32.10 9.54Q32.30 9.70 32.39 9.94L32.39 9.94L32.39 9.94Q32.48 10.18 32.50 10.47L32.50 10.47L32.50 10.47Q32.52 10.75 32.52 11.01ZM46.90 15.49L46.90 15.49L46.90 15.49Q46.61 15.78 46.28 16.01L46.28 16.01L46.28 16.01Q45.95 16.25 45.62 16.42L45.62 16.42L45.62 16.42Q45.28 16.59 44.97 16.69L44.97 16.69L44.97 16.69Q44.65 16.80 44.39 16.81L44.39 16.81L44.39 16.81Q44.25 16.82 44.02 16.81L44.02 16.81L44.02 16.81Q43.80 16.79 43.59 16.69L43.59 16.69L43.59 16.69Q43.38 16.58 43.23 16.37L43.23 16.37L43.23 16.37Q43.08 16.15 43.08 15.74L43.08 15.74L43.08 14.93L43.08 14.93Q42.70 15.30 42.29 15.64L42.29 15.64L42.29 15.64Q41.87 15.98 41.43 16.24L41.43 16.24L41.43 16.24Q40.99 16.50 40.54 16.66L40.54 16.66L40.54 16.66Q40.09 16.81 39.65 16.81L39.65 16.81L39.65 16.81Q39.09 16.81 38.66 16.56L38.66 16.56L38.66 16.56Q38.24 16.31 37.95 15.91L37.95 15.91L37.95 15.91Q37.67 15.52 37.52 15.03L37.52 15.03L37.52 15.03Q37.38 14.53 37.38 14.05L37.38 14.05L37.38 14.05Q37.38 13.69 37.43 13.33L37.43 13.33L37.43 13.33Q37.49 12.98 37.57 12.67L37.57 12.67L37.57 12.67Q37.66 12.35 37.77 12.10L37.77 12.10L37.77 12.10Q37.88 11.85 38.01 11.68L38.01 11.68L38.01 11.68Q38.23 11.38 38.58 11.09L38.58 11.09L38.58 11.09Q38.93 10.80 39.34 10.55L39.34 10.55L39.34 10.55Q39.76 10.29 40.22 10.09L40.22 10.09L40.22 10.09Q40.69 9.88 41.15 9.73L41.15 9.73L41.15 9.73Q41.61 9.58 42.05 9.50L42.05 9.50L42.05 9.50Q42.49 9.42 42.85 9.42L42.85 9.42L42.85 9.42Q43.24 9.42 43.76 9.46L43.76 9.46L43.76 9.46Q44.28 9.50 44.94 9.61L44.94 9.61L44.94 9.61Q44.91 10.40 44.89 11.00L44.89 11.00L44.89 11.00Q44.87 11.60 44.86 12.08L44.86 12.08L44.86 12.08Q44.84 12.55 44.84 12.94L44.84 12.94L44.84 12.94Q44.83 13.33 44.83 13.70L44.83 13.70L44.83 13.70Q44.83 14.08 44.82 14.44L44.82 14.44L44.82 14.44Q44.80 14.80 44.87 15.09L44.87 15.09L44.87 15.09Q44.94 15.37 45.14 15.55L45.14 15.55L45.14 15.55Q45.34 15.73 45.77 15.73L45.77 15.73L45.77 15.73Q46.02 15.73 46.31 15.66L46.31 15.66L46.31 15.66Q46.59 15.60 46.90 15.49ZM43.09 10.60L43.09 10.60L43.09 10.60Q42.68 10.49 42.22 10.44L42.22 10.44L42.22 10.44Q41.75 10.40 41.33 10.40L41.33 10.40L41.33 10.40Q41.10 10.40 40.89 10.41L40.89 10.41L40.89 10.41Q40.68 10.42 40.51 10.45L40.51 10.45L40.51 10.45Q40.34 10.47 40.21 10.50L40.21 10.50L40.21 10.50Q40.08 10.53 40.01 10.57L40.01 10.57L40.01 10.57Q39.89 10.63 39.72 10.87L39.72 10.87L39.72 10.87Q39.56 11.10 39.41 11.45L39.41 11.45L39.41 11.45Q39.26 11.80 39.15 12.24L39.15 12.24L39.15 12.24Q39.05 12.67 39.05 13.14L39.05 13.14L39.05 13.14Q39.05 13.58 39.18 14.03L39.18 14.03L39.18 14.03Q39.31 14.48 39.56 14.83L39.56 14.83L39.56 14.83Q39.81 15.19 40.17 15.41L40.17 15.41L40.17 15.41Q40.54 15.63 41.01 15.63L41.01 15.63L41.01 15.63Q41.45 15.63 41.79 15.49L41.79 15.49L41.79 15.49Q42.14 15.35 42.39 15.10L42.39 15.10L42.39 15.10Q42.64 14.85 42.81 14.51L42.81 14.51L42.81 14.51Q42.98 14.18 43.08 13.79L43.08 13.79L43.08 13.79Q43.08 13.50 43.08 13.18L43.08 13.18L43.08 13.18Q43.08 12.85 43.08 12.46L43.08 12.46L43.08 12.46Q43.08 12.07 43.08 11.61L43.08 11.61L43.08 11.61Q43.09 11.15 43.09 10.60ZM59.59 11.96L59.59 11.96L59.59 11.96Q59.45 12.09 59.29 12.23L59.29 12.23L59.29 12.23Q59.14 12.36 58.96 12.50L58.96 12.50L58.96 12.50Q59.13 12.91 59.30 13.29L59.30 13.29L59.30 13.29Q59.47 13.67 59.61 13.99L59.61 13.99L59.61 13.99Q59.76 14.31 59.89 14.55L59.89 14.55L59.89 14.55Q60.02 14.79 60.12 14.93L60.12 14.93L60.12 14.93Q60.27 15.13 60.44 15.28L60.44 15.28L60.44 15.28Q60.60 15.41 60.81 15.51L60.81 15.51L60.81 15.51Q61.02 15.62 61.27 15.62L61.27 15.62L61.27 15.62Q61.52 15.62 61.82 15.45L61.82 15.45L61.82 15.45Q61.57 15.71 61.29 15.96L61.29 15.96L61.29 15.96Q61.02 16.21 60.71 16.41L60.71 16.41L60.71 16.41Q60.41 16.60 60.08 16.73L60.08 16.73L60.08 16.73Q59.76 16.85 59.42 16.85L59.42 16.85L59.42 16.85Q59.16 16.85 58.94 16.70L58.94 16.70L58.94 16.70Q58.72 16.54 58.51 16.15L58.51 16.15L58.51 16.15Q58.43 16.03 58.31 15.76L58.31 15.76L58.31 15.76Q58.19 15.49 58.03 15.12L58.03 15.12L58.03 15.12Q57.87 14.75 57.67 14.29L57.67 14.29L57.67 14.29Q57.48 13.84 57.28 13.34L57.28 13.34L57.28 13.34Q56.85 13.47 56.35 13.54L56.35 13.54L56.35 13.54Q55.84 13.62 55.26 13.62L55.26 13.62L53.25 13.62L52.68 14.93L52.68 14.93Q52.64 15.06 52.62 15.19L52.62 15.19L52.62 15.19Q52.60 15.33 52.64 15.44L52.64 15.44L52.64 15.44Q52.68 15.54 52.80 15.62L52.80 15.62L52.80 15.62Q52.92 15.69 53.16 15.69L53.16 15.69L53.16 15.69Q53.30 15.69 53.47 15.66L53.47 15.66L53.47 15.66Q53.64 15.63 53.86 15.58L53.86 15.58L53.86 15.58Q53.48 15.94 53.20 16.19L53.20 16.19L53.20 16.19Q52.92 16.45 52.66 16.60L52.66 16.60L52.66 16.60Q52.41 16.76 52.15 16.83L52.15 16.83L52.15 16.83Q51.89 16.91 51.56 16.91L51.56 16.91L51.56 16.91Q51.36 16.91 51.27 16.81L51.27 16.81L51.27 16.81Q51.19 16.71 51.19 16.54L51.19 16.54L51.19 16.54Q51.19 16.32 51.30 16.01L51.30 16.01L51.30 16.01Q51.41 15.70 51.58 15.31L51.58 15.31L51.58 15.31Q51.73 14.96 52.14 14.02L52.14 14.02L52.14 14.02Q52.32 13.62 52.58 13.04L52.58 13.04L52.58 13.04Q52.83 12.47 53.18 11.69L53.18 11.69L53.18 11.69Q53.53 10.90 53.97 9.88L53.97 9.88L53.97 9.88Q54.42 8.87 55.00 7.58L55.00 7.58L55.32 7.31L55.32 7.31Q55.32 7.10 55.35 6.95L55.35 6.95L55.35 6.95Q55.38 6.79 55.45 6.67L55.45 6.67L55.45 6.67Q55.51 6.55 55.60 6.45L55.60 6.45L55.60 6.45Q55.69 6.36 55.79 6.27L55.79 6.27L55.79 6.27Q55.92 6.17 56.09 6.03L56.09 6.03L56.09 6.03Q56.38 5.80 56.93 5.33L56.93 5.33L56.93 5.33Q56.85 5.49 56.82 5.68L56.82 5.68L56.82 5.68Q56.79 5.88 56.79 6.07L56.79 6.07L56.79 6.07Q56.79 6.27 56.81 6.45L56.81 6.45L56.81 6.45Q56.83 6.63 56.85 6.77L56.85 6.77L56.85 6.77Q56.88 6.93 56.93 7.07L56.93 7.07L56.93 7.07Q57.00 7.31 57.19 7.85L57.19 7.85L57.19 7.85Q57.37 8.38 57.63 9.07L57.63 9.07L57.63 9.07Q57.89 9.77 58.19 10.55L58.19 10.55L58.19 10.55Q58.49 11.34 58.79 12.09L58.79 12.09L58.79 12.09Q58.99 12.07 59.14 12.04L59.14 12.04L59.14 12.04Q59.29 12.01 59.39 12.00L59.39 12.00L59.39 12.00Q59.51 11.98 59.59 11.96ZM55.51 8.62L55.51 8.62L55.51 8.62Q55.03 9.68 54.60 10.61L54.60 10.61L54.60 10.61Q54.17 11.53 53.78 12.44L53.78 12.44L53.78 12.44Q54.69 12.42 55.46 12.38L55.46 12.38L55.46 12.38Q56.23 12.34 56.85 12.28L56.85 12.28L56.85 12.28Q56.63 11.75 56.43 11.22L56.43 11.22L56.43 11.22Q56.23 10.69 56.05 10.21L56.05 10.21L56.05 10.21Q55.88 9.73 55.74 9.32L55.74 9.32L55.74 9.32Q55.60 8.91 55.51 8.62ZM67.28 15.29L67.28 15.29L67.28 15.29Q66.60 15.76 66.13 16.06L66.13 16.06L66.13 16.06Q65.67 16.37 65.32 16.55L65.32 16.55L65.32 16.55Q64.98 16.73 64.70 16.80L64.70 16.80L64.70 16.80Q64.42 16.86 64.11 16.86L64.11 16.86L64.11 16.86Q63.85 16.86 63.60 16.74L63.60 16.74L63.60 16.74Q63.35 16.61 63.15 16.27L63.15 16.27L63.15 16.27Q62.96 15.93 62.84 15.34L62.84 15.34L62.84 15.34Q62.73 14.75 62.73 13.82L62.73 13.82L62.73 13.82Q62.73 12.89 62.75 11.88L62.75 11.88L62.75 11.88Q62.77 10.87 62.79 9.85L62.79 9.85L62.79 9.85Q62.82 8.83 62.84 7.85L62.84 7.85L62.84 7.85Q62.86 6.88 62.86 6.03L62.86 6.03L62.86 6.03Q62.86 5.20 62.60 4.73L62.60 4.73L62.60 4.73Q62.35 4.27 61.83 4.27L61.83 4.27L61.83 4.27Q61.67 4.27 61.48 4.31L61.48 4.31L61.48 4.31Q61.29 4.35 61.08 4.46L61.08 4.46L61.08 4.46Q61.35 4.27 61.64 4.07L61.64 4.07L61.64 4.07Q61.93 3.87 62.24 3.71L62.24 3.71L62.24 3.71Q62.54 3.54 62.85 3.44L62.85 3.44L62.85 3.44Q63.16 3.33 63.47 3.33L63.47 3.33L63.47 3.33Q63.86 3.33 64.08 3.52L64.08 3.52L64.08 3.52Q64.31 3.72 64.41 4.01L64.41 4.01L64.41 4.01Q64.52 4.29 64.54 4.63L64.54 4.63L64.54 4.63Q64.57 4.97 64.57 5.26L64.57 5.26L64.57 5.26Q64.56 5.69 64.55 6.31L64.55 6.31L64.55 6.31Q64.54 6.92 64.52 7.63L64.52 7.63L64.52 7.63Q64.51 8.34 64.50 9.10L64.50 9.10L64.50 9.10Q64.48 9.86 64.47 10.59L64.47 10.59L64.47 10.59Q64.46 11.31 64.45 11.97L64.45 11.97L64.45 11.97Q64.44 12.63 64.42 13.13L64.42 13.13L64.42 13.13Q64.41 13.79 64.52 14.28L64.52 14.28L64.52 14.28Q64.63 14.77 64.83 15.09L64.83 15.09L64.83 15.09Q65.04 15.40 65.32 15.55L65.32 15.55L65.32 15.55Q65.61 15.70 65.96 15.70L65.96 15.70L65.96 15.70Q66.59 15.70 67.28 15.29ZM75.58 12.56L75.58 12.56L75.58 12.56Q75.58 13.13 75.42 13.60L75.42 13.60L75.42 13.60Q75.26 14.06 75.04 14.41L75.04 14.41L75.04 14.41Q74.83 14.76 74.60 14.99L74.60 14.99L74.60 14.99Q74.38 15.22 74.24 15.33L74.24 15.33L74.24 15.33Q73.84 15.61 73.42 15.89L73.42 15.89L73.42 15.89Q73.01 16.16 72.57 16.38L72.57 16.38L72.57 16.38Q72.13 16.59 71.66 16.72L71.66 16.72L71.66 16.72Q71.20 16.85 70.70 16.85L70.70 16.85L70.70 16.85Q69.97 16.85 69.32 16.67L69.32 16.67L69.32 16.67Q68.67 16.48 68.18 16.11L68.18 16.11L68.18 16.11Q67.69 15.74 67.41 15.18L67.41 15.18L67.41 15.18Q67.12 14.62 67.12 13.87L67.12 13.87L67.12 13.87Q67.12 13.21 67.35 12.62L67.35 12.62L67.35 12.62Q67.58 12.04 67.97 11.55L67.97 11.55L67.97 11.55Q68.35 11.05 68.87 10.66L68.87 10.66L68.87 10.66Q69.39 10.27 69.97 9.99L69.97 9.99L69.97 9.99Q70.55 9.72 71.17 9.58L71.17 9.58L71.17 9.58Q71.78 9.43 72.36 9.43L72.36 9.43L72.36 9.43Q73.07 9.43 73.66 9.67L73.66 9.67L73.66 9.67Q74.25 9.91 74.68 10.33L74.68 10.33L74.68 10.33Q75.11 10.75 75.34 11.32L75.34 11.32L75.34 11.32Q75.58 11.89 75.58 12.56ZM70.86 10.23L70.86 10.23L70.86 10.23Q70.51 10.23 70.23 10.35L70.23 10.35L70.23 10.35Q69.94 10.48 69.72 10.69L69.72 10.69L69.72 10.69Q69.49 10.91 69.33 11.19L69.33 11.19L69.33 11.19Q69.17 11.48 69.07 11.79L69.07 11.79L69.07 11.79Q68.96 12.10 68.91 12.42L68.91 12.42L68.91 12.42Q68.86 12.74 68.86 13.02L68.86 13.02L68.86 13.02Q68.86 13.65 69.09 14.20L69.09 14.20L69.09 14.20Q69.32 14.75 69.73 15.16L69.73 15.16L69.73 15.16Q70.14 15.57 70.68 15.80L70.68 15.80L70.68 15.80Q71.22 16.04 71.84 16.04L71.84 16.04L71.84 16.04Q72.22 16.04 72.58 15.89L72.58 15.89L72.58 15.89Q72.94 15.74 73.22 15.43L73.22 15.43L73.22 15.43Q73.49 15.11 73.66 14.60L73.66 14.60L73.66 14.60Q73.83 14.10 73.83 13.39L73.83 13.39L73.83 13.39Q73.83 12.77 73.60 12.20L73.60 12.20L73.60 12.20Q73.36 11.62 72.96 11.18L72.96 11.18L72.96 11.18Q72.56 10.75 72.02 10.49L72.02 10.49L72.02 10.49Q71.48 10.23 70.86 10.23ZM87.55 15.29L87.55 15.29L87.55 15.29Q87.04 15.66 86.65 15.93L86.65 15.93L86.65 15.93Q86.27 16.21 85.94 16.38L85.94 16.38L85.94 16.38Q85.61 16.56 85.31 16.63L85.31 16.63L85.31 16.63Q85.01 16.70 84.66 16.68L84.66 16.68L84.66 16.68Q84.40 16.67 84.21 16.57L84.21 16.57L84.21 16.57Q84.02 16.47 83.90 16.28L83.90 16.28L83.90 16.28Q83.77 16.09 83.71 15.81L83.71 15.81L83.71 15.81Q83.64 15.54 83.62 15.16L83.62 15.16L83.62 15.16Q83.23 15.49 82.82 15.78L82.82 15.78L82.82 15.78Q82.40 16.06 81.95 16.27L81.95 16.27L81.95 16.27Q81.50 16.48 81.03 16.60L81.03 16.60L81.03 16.60Q80.55 16.71 80.06 16.71L80.06 16.71L80.06 16.71Q79.37 16.71 78.93 16.51L78.93 16.51L78.93 16.51Q78.50 16.30 78.24 15.93L78.24 15.93L78.24 15.93Q77.98 15.57 77.89 15.05L77.89 15.05L77.89 15.05Q77.79 14.54 77.79 13.92L77.79 13.92L77.79 13.92Q77.79 13.52 77.80 13.13L77.80 13.13L77.80 13.13Q77.81 12.74 77.81 12.37L77.81 12.37L77.81 12.37Q77.81 11.94 77.78 11.57L77.78 11.57L77.78 11.57Q77.75 11.19 77.66 10.91L77.66 10.91L77.66 10.91Q77.57 10.64 77.39 10.48L77.39 10.48L77.39 10.48Q77.22 10.32 76.93 10.32L76.93 10.32L76.93 10.32Q76.69 10.32 76.36 10.44L76.36 10.44L76.36 10.44Q76.61 10.24 76.89 10.04L76.89 10.04L76.89 10.04Q77.16 9.83 77.45 9.67L77.45 9.67L77.45 9.67Q77.75 9.50 78.05 9.40L78.05 9.40L78.05 9.40Q78.35 9.29 78.67 9.29L78.67 9.29L78.67 9.29Q78.96 9.29 79.12 9.43L79.12 9.43L79.12 9.43Q79.29 9.56 79.38 9.78L79.38 9.78L79.38 9.78Q79.47 9.99 79.50 10.26L79.50 10.26L79.50 10.26Q79.52 10.52 79.52 10.77L79.52 10.77L79.52 10.77Q79.52 11.45 79.51 12.07L79.51 12.07L79.51 12.07Q79.50 12.68 79.50 13.30L79.50 13.30L79.50 13.30Q79.50 13.83 79.62 14.24L79.62 14.24L79.62 14.24Q79.73 14.66 79.98 14.94L79.98 14.94L79.98 14.94Q80.23 15.23 80.63 15.37L80.63 15.37L80.63 15.37Q81.03 15.52 81.61 15.50L81.61 15.50L81.61 15.50Q82.04 15.50 82.36 15.44L82.36 15.44L82.36 15.44Q82.69 15.37 82.93 15.22L82.93 15.22L82.93 15.22Q83.17 15.06 83.34 14.80L83.34 14.80L83.34 14.80Q83.51 14.53 83.62 14.12L83.62 14.12L83.62 14.12Q83.64 13.21 83.68 12.39L83.68 12.39L83.68 12.39Q83.71 11.57 83.71 10.76L83.71 10.76L83.71 10.76Q83.71 10.60 83.63 10.48L83.63 10.48L83.63 10.48Q83.57 10.38 83.43 10.33L83.43 10.33L83.43 10.33Q83.29 10.27 83.04 10.34L83.04 10.34L83.04 10.34Q83.23 10.19 83.48 10.01L83.48 10.01L83.48 10.01Q83.73 9.82 83.98 9.66L83.98 9.66L83.98 9.66Q84.24 9.50 84.49 9.39L84.49 9.39L84.49 9.39Q84.74 9.28 84.96 9.28L84.96 9.28L84.96 9.28Q85.19 9.28 85.35 9.41L85.35 9.41L85.35 9.41Q85.52 9.55 85.52 9.81L85.52 9.81L85.52 9.81Q85.52 9.95 85.51 10.32L85.51 10.32L85.51 10.32Q85.51 10.68 85.50 11.17L85.50 11.17L85.50 11.17Q85.49 11.66 85.48 12.20L85.48 12.20L85.48 12.20Q85.48 12.75 85.47 13.25L85.47 13.25L85.47 13.25Q85.46 13.75 85.46 14.16L85.46 14.16L85.46 14.16Q85.46 14.57 85.46 14.78L85.46 14.78L85.46 14.78Q85.48 15.17 85.77 15.35L85.77 15.35L85.77 15.35Q86.06 15.54 86.48 15.54L86.48 15.54L86.48 15.54Q86.73 15.54 87.01 15.47L87.01 15.47L87.01 15.47Q87.29 15.41 87.55 15.29Z"></path></g><!----><!----></svg>